<svg xmlns="http://www.w3.org/2000/svg" width="339" height="161" fill="none" viewBox="0 0 339 161">
    <g fill="#fff" clip-path="url(#a)">
        <path d="M62.566 97.058V52.539l-34.19 44.519h34.19zm-5.013-5.014h-19.05l19.05-24.765v24.765z"/>
        <path d="M321.754 92.044V10.428h-25.066l-41.611 53.341c-4.211-19.953-15.742-37.399-32.486-49.13-17.647-12.333-39.004-17.045-60.16-13.336-21.156 3.71-39.605 15.441-51.938 33.088-11.831 16.845-16.644 37.3-13.636 57.653H90.14V10.428H65.073L.5 93.248 0 93.948v31.384h53.843v26.771h36.296v-26.771h19.452c5.515 8.121 12.433 15.34 20.755 21.156 13.636 9.625 29.579 14.538 46.022 14.538a84.13 84.13 0 0 0 14.138-1.203c21.156-3.71 39.605-15.441 51.938-33.088.3-.401.601-.902.902-1.403h42.212v26.771h36.296v-26.771H339.1V92.044h-17.346zM250.766 67.38c2.907 16.444.301 32.987-7.219 47.526-1.605-.2-3.008-1.103-3.911-2.507l-5.815-8.923c-1.404-2.206-2.407-4.512-2.808-7.12l-1.604-8.923c-.501-2.807-2.005-5.214-4.311-6.818-2.307-1.604-5.114-2.206-7.921-1.705h-.201c-2.707.502-5.615.1-8.122-1.203l-.401-.2c-3.609-1.805-6.216-5.314-6.918-9.325-.301-1.604-.301-3.309.1-4.913l1.204-5.916c.501-2.206 2.205-3.91 4.511-4.311l6.117-1.103c2.406-.401 4.913-.2 7.219.702l5.715 2.206c3.81 1.504 8.122.601 11.13-2.206l1.504-1.504c.802-.802 1.804-1.304 2.907-1.404l3.309-.602c2.406 5.716 4.412 11.832 5.515 18.249zm-8.022-22.961l-1.905.3c-2.105.402-3.91 1.304-5.514 2.808l-1.504 1.504c-1.504 1.504-3.81 1.905-5.816 1.203l-5.715-2.205c-1.504-.602-3.008-.903-4.512-1.103 0-.1.1-.201.1-.401l1.404-5.415 4.813-.802 5.114.1 2.205.602c2.006.601 4.111.702 6.117.3l3.108-.5c.702 1.102 1.404 2.406 2.105 3.609zm-28.575-18.45l-1.003-5.614c0-.2 0-.401.1-.602l2.607-3.61c1.304.803 2.607 1.605 3.81 2.508.502.4 1.003.701 1.604 1.102l-2.005 1.805c-1.003.903-1.103 2.507-.2 3.61a2.738 2.738 0 0 0 1.905.802c.601 0 1.203-.2 1.704-.702l2.607-2.406c4.612 3.91 8.723 8.322 12.233 13.235l-.903.2c-1.203.2-2.607.1-3.81-.2l-2.406-.702a12.673 12.673 0 0 0-6.117-.3l-7.519 1.303c-1.003.2-1.705.902-2.006 1.804l-1.805 7.019a2.917 2.917 0 0 1-2.306 2.106l-4.411.802h-.101c-1.504.3-3.008-.802-3.308-2.306l-.702-3.91c-.201-1.304.401-2.507 1.604-3.109l5.113-2.406s.101 0 .101-.1c1.303-.703 2.506-1.805 3.409-3.009 1.704-2.105 2.206-4.712 1.805-7.32zm-99.464 11.23a51.188 51.188 0 0 1 2.807-3.71l2.507 1.806c1.103.802 2.506 1.103 3.91.902 1.404-.2 2.607-1.003 3.409-2.105l1.404-2.006c1.303-1.805 3.108-3.008 5.314-3.409l.702-.1.802 4.612c.2 1.203 1.303 2.106 2.507 2.106h.401c1.403-.2 2.306-1.504 2.005-2.908l-.201-.902 10.528-5.716 12.032-2.105-2.105.902c-1.805.802-2.808 2.507-2.808 4.412 0 1.905 1.103 3.61 2.908 4.412l7.119 3.108c.1 0 .1.1.1.2l-.501 1.605c0 .1-.1.1-.1.1l-4.011.702c-1.404.2-2.607 1.002-3.409 2.105 0 0 0 .1-.1.1L143.08 67.58l-4.312.803c-5.715 1.002-9.625 6.517-8.622 12.232l.1.401-4.412-.1c-1.704 0-3.309-.903-4.311-2.206l-2.206-2.908c-.602-.802-1.504-1.103-2.507-1.002l-1.905.3c-1.805.301-3.61-.601-4.512-2.206l-6.818-12.633c2.507-8.122 6.116-15.942 11.13-23.061zM85.126 120.22v26.771h-26.27v-26.771H5.013V95.654L67.58 15.44h17.647v81.617H97.86c1.704 8.221 4.712 16.042 8.723 23.161H85.126zm153.106 3.509c-11.53 16.544-28.876 27.473-48.729 30.983a73.856 73.856 0 0 1-13.235 1.203c-15.341 0-30.28-4.713-43.114-13.636-16.544-11.531-27.473-28.877-30.983-48.73-1.504-8.723-1.504-17.446-.1-25.868l4.111 7.52c1.905 3.509 5.815 5.414 9.826 4.712l.301-.1 1.203 1.704c2.005 2.607 5.013 4.212 8.222 4.312l11.731.3c.602 0 1.103.201 1.604.502l.802.501c1.103.802 2.407 1.204 3.71 1.404l-1.103 7.42v.802l1.203 6.718c.502 2.907 2.407 5.314 4.913 6.718l9.024 4.612c1.204.601 2.006 1.704 2.307 3.108l1.604 8.924a29.362 29.362 0 0 0 4.311 10.929l5.314 8.222c1.103 1.704 2.908 2.606 4.913 2.606.301 0 .602 0 .903-.1 1.504-.2 2.908-1.103 3.81-2.306.902-1.303 1.303-2.807 1.003-4.412l-1.504-8.623 3.81-3.709c1.805-1.805 3.008-4.111 3.208-6.618l.602-6.718c.1-.301.301-.601.702-.702l1.704-.3c2.707-.502 4.713-2.708 4.913-5.415l.502-6.718c.3-3.71-1.504-7.32-4.512-9.425l-1.404-1.002c-2.306-1.605-5.114-2.206-7.921-1.705l-1.203.2c-.702.1-1.504 0-2.106-.5l-9.325-6.518c-3.509-2.406-7.72-3.409-11.931-2.607l-12.333 2.206c-.702.1-1.504 0-2.106-.501l-.802-.502c-1.303-.902-2.807-1.403-4.311-1.403h-2.106l-.301-1.404c-.501-3.008 1.504-5.916 4.512-6.417l2.808-.501 4.712-2.307 16.945-26.47s.101 0 .101-.1l4.01-.702c1.905-.3 3.409-1.705 4.011-3.51l.501-1.604c.802-2.607-.401-5.314-2.908-6.417l-6.717-2.907 7.52-3.41c1.103-.5 1.704-1.604 1.504-2.707l-.602-3.308c-.1-.702-.501-1.204-1.003-1.605-.501-.4-1.203-.501-1.905-.4l-19.251 3.408c-.301 0-.501.1-.802.301l-9.325 5.114-.2-1.003c-.101-.702-.502-1.203-1.003-1.604-.501-.401-1.203-.502-1.905-.401l-3.208.601c-3.51.602-6.518 2.507-8.523 5.415l-1.404 2.005s0 .1-.1.1h-.1l-2.106-1.504c11.13-12.332 25.969-20.454 42.613-23.462a73.853 73.853 0 0 1 13.235-1.203c12.133 0 24.064 2.908 34.893 8.623l-2.306 3.108c-.903 1.303-1.203 2.908-1.003 4.412l1.003 5.615c.2 1.303-.1 2.606-.802 3.61a4.29 4.29 0 0 1-1.605 1.403l-5.013 2.306c-3.208 1.504-5.113 5.013-4.512 8.523l.702 3.91c.301 1.805 1.303 3.41 2.507 4.512-1.304 1.404-2.306 3.209-2.708 5.114l-1.203 5.915c-.501 2.306-.501 4.512-.1 6.818 1.003 5.515 4.612 10.428 9.626 12.935l.401.2a19.137 19.137 0 0 0 11.33 1.705h.2c1.504-.301 2.908.1 4.111.902 1.203.802 2.005 2.106 2.306 3.61l1.605 8.923c.601 3.209 1.804 6.217 3.509 9.024l5.815 8.924c1.304 2.106 3.309 3.509 5.615 4.312-1.002 1.303-1.905 2.707-2.908 4.11zm-63.368 8.924l1.705 9.926c0 .301 0 .502-.101.602-.1.1-.2.301-.501.301s-.601-.1-.802-.301l-5.314-8.222a22.626 22.626 0 0 1-3.509-9.024l-1.605-8.923c-.501-2.908-2.406-5.314-4.913-6.718l-9.024-4.612c-1.203-.602-2.005-1.705-2.306-3.109l-1.103-6.317 1.304-8.422 9.425-1.604c2.907-.501 5.815.1 8.121 1.805l9.325 6.517c1.705 1.203 3.81 1.704 5.916 1.303l1.203-.2c1.504-.3 2.908.1 4.111.902l1.404 1.003c1.604 1.103 2.506 3.008 2.306 4.913l-.502 6.718c0 .401-.3.702-.701.802l-1.705.301c-2.507.401-4.412 2.406-4.813 4.913v.1l-.601 6.818c-.101 1.304-.702 2.607-1.705 3.51l-4.813 4.612c-.601.702-.902 1.504-.802 2.406zm159.123-12.433h-17.246v26.771h-26.27v-26.771h-44.017c8.623-15.14 12.133-32.486 9.927-49.832l42.813-54.946h17.647v81.617h17.246v23.161h-.1z"/>
        <path d="M294.181 97.058V52.539L259.99 97.058h34.191zm-5.013-5.014h-19.051l19.051-24.765v24.765z"/>
    </g>
    <defs>
        <clipPath id="a">
            <path fill="#fff" d="M0 0h339v160.927H0z"/>
        </clipPath>
    </defs>
</svg>
