<svg width="1152" height="1080" viewBox="0 0 1152 1080" fill="none" xmlns="http://www.w3.org/2000/svg">
<g opacity="0.57">
<path opacity="0.35" d="M212.858 723.043C330.417 723.043 425.717 627.751 425.717 510.203C425.717 392.654 330.417 297.363 212.858 297.363C95.3 297.363 0 392.654 0 510.203C0 627.751 95.3 723.043 212.858 723.043Z" fill="url(#paint0_linear)"/>
<path opacity="0.35" d="M786.294 256.333C861.503 256.333 922.472 195.369 922.472 120.167C922.472 44.9639 861.503 -16 786.294 -16C711.085 -16 650.116 44.9639 650.116 120.167C650.116 195.369 711.085 256.333 786.294 256.333Z" fill="url(#paint1_linear)"/>
<path opacity="0.35" d="M912.214 1080.26C1003.85 1080.26 1078.14 1005.97 1078.14 914.344C1078.14 822.712 1003.85 748.431 912.214 748.431C820.575 748.431 746.287 822.712 746.287 914.344C746.287 1005.97 820.575 1080.26 912.214 1080.26Z" fill="url(#paint2_linear)"/>
<g opacity="0.35">
<path opacity="0.35" d="M1035.06 373.267C1038.46 373.267 1041.21 370.512 1041.21 367.113C1041.21 363.714 1038.46 360.958 1035.06 360.958C1031.66 360.958 1028.9 363.714 1028.9 367.113C1028.9 370.512 1031.66 373.267 1035.06 373.267Z" fill="white"/>
<path opacity="0.35" d="M1057.11 395.321C1060.51 395.321 1063.27 392.565 1063.27 389.166C1063.27 385.767 1060.51 383.012 1057.11 383.012C1053.71 383.012 1050.96 385.767 1050.96 389.166C1050.96 392.565 1053.71 395.321 1057.11 395.321Z" fill="white"/>
<path opacity="0.35" d="M1079.42 417.63C1082.82 417.63 1085.58 414.875 1085.58 411.476C1085.58 408.077 1082.82 405.322 1079.42 405.322C1076.02 405.322 1073.27 408.077 1073.27 411.476C1073.27 414.875 1076.02 417.63 1079.42 417.63Z" fill="white"/>
<path opacity="0.35" d="M1105.84 437.889C1103.53 440.197 1099.68 440.197 1097.12 437.889C1094.81 435.581 1094.81 431.734 1097.12 429.17C1099.43 426.862 1103.27 426.862 1105.84 429.17C1108.4 431.734 1108.4 435.581 1105.84 437.889Z" fill="white"/>
<path opacity="0.35" d="M1128.15 460.198C1125.84 462.506 1121.99 462.506 1119.43 460.198C1117.12 457.89 1117.12 454.044 1119.43 451.479C1121.74 448.915 1125.58 449.172 1128.15 451.479C1130.46 453.787 1130.46 457.634 1128.15 460.198Z" fill="white"/>
<path opacity="0.35" d="M1145.84 484.047C1149.24 484.047 1152 481.291 1152 477.892C1152 474.493 1149.24 471.738 1145.84 471.738C1142.45 471.738 1139.69 474.493 1139.69 477.892C1139.69 481.291 1142.45 484.047 1145.84 484.047Z" fill="white"/>
<path opacity="0.35" d="M1013.77 394.295C1017.17 394.295 1019.92 391.539 1019.92 388.14C1019.92 384.741 1017.17 381.986 1013.77 381.986C1010.37 381.986 1007.61 384.741 1007.61 388.14C1007.61 391.539 1010.37 394.295 1013.77 394.295Z" fill="white"/>
<path opacity="0.35" d="M1040.44 414.81C1038.13 417.117 1034.29 417.117 1031.72 414.81C1029.41 412.502 1029.41 408.655 1031.72 406.091C1034.03 403.783 1037.88 403.783 1040.44 406.091C1042.75 408.399 1042.75 412.245 1040.44 414.81Z" fill="white"/>
<path opacity="0.35" d="M1062.5 436.863C1060.19 439.171 1056.34 439.171 1053.78 436.863C1051.47 434.555 1051.47 430.709 1053.78 428.144C1056.09 425.58 1059.93 425.836 1062.5 428.144C1064.8 430.709 1064.8 434.555 1062.5 436.863Z" fill="white"/>
<path opacity="0.35" d="M1080.45 460.968C1083.85 460.968 1086.6 458.212 1086.6 454.813C1086.6 451.414 1083.85 448.659 1080.45 448.659C1077.05 448.659 1074.29 451.414 1074.29 454.813C1074.29 458.212 1077.05 460.968 1080.45 460.968Z" fill="white"/>
<path opacity="0.35" d="M1106.86 481.226C1104.56 483.534 1100.71 483.534 1098.14 481.226C1095.84 478.918 1095.84 475.072 1098.14 472.507C1100.45 470.199 1104.3 470.199 1106.86 472.507C1109.43 475.072 1109.43 478.918 1106.86 481.226Z" fill="white"/>
<path opacity="0.35" d="M1129.17 503.536C1126.87 505.844 1123.02 505.844 1120.46 503.536C1118.15 501.228 1118.15 497.381 1120.46 494.817C1122.76 492.509 1126.61 492.509 1129.17 494.817C1131.48 497.381 1131.48 501.228 1129.17 503.536Z" fill="white"/>
<path opacity="0.35" d="M992.484 415.579C995.883 415.579 998.639 412.823 998.639 409.424C998.639 406.025 995.883 403.27 992.484 403.27C989.085 403.27 986.329 406.025 986.329 409.424C986.329 412.823 989.085 415.579 992.484 415.579Z" fill="white"/>
<path opacity="0.35" d="M1014.8 437.889C1018.19 437.889 1020.95 435.133 1020.95 431.734C1020.95 428.335 1018.19 425.58 1014.8 425.58C1011.4 425.58 1008.64 428.335 1008.64 431.734C1008.64 435.133 1011.4 437.889 1014.8 437.889Z" fill="white"/>
<path opacity="0.35" d="M1037.11 459.942C1040.51 459.942 1043.26 457.187 1043.26 453.788C1043.26 450.389 1040.51 447.633 1037.11 447.633C1033.71 447.633 1030.95 450.389 1030.95 453.788C1030.95 457.187 1033.71 459.942 1037.11 459.942Z" fill="white"/>
<path opacity="0.35" d="M1063.52 480.457C1061.21 482.764 1057.37 482.764 1054.8 480.457C1052.49 478.149 1052.49 474.302 1054.8 471.738C1057.11 469.43 1060.96 469.43 1063.52 471.738C1065.83 474.046 1065.83 477.892 1063.52 480.457Z" fill="white"/>
<path opacity="0.35" d="M1085.83 502.51C1083.53 504.818 1079.68 504.818 1077.11 502.51C1074.81 500.202 1074.81 496.356 1077.11 493.791C1079.42 491.483 1083.27 491.483 1085.83 493.791C1088.14 496.356 1088.14 500.202 1085.83 502.51Z" fill="white"/>
<path opacity="0.35" d="M1103.53 526.615C1106.93 526.615 1109.68 523.86 1109.68 520.461C1109.68 517.062 1106.93 514.306 1103.53 514.306C1100.13 514.306 1097.37 517.062 1097.37 520.461C1097.37 523.86 1100.13 526.615 1103.53 526.615Z" fill="white"/>
<path opacity="0.35" d="M971.455 436.863C974.854 436.863 977.61 434.108 977.61 430.709C977.61 427.31 974.854 424.554 971.455 424.554C968.055 424.554 965.3 427.31 965.3 430.709C965.3 434.108 968.055 436.863 971.455 436.863Z" fill="white"/>
<path opacity="0.35" d="M997.87 457.121C995.561 459.429 991.715 459.429 989.15 457.121C986.842 454.813 986.842 450.967 989.15 448.403C991.458 446.095 995.305 446.095 997.87 448.403C1000.43 450.967 1000.43 454.813 997.87 457.121Z" fill="white"/>
<path opacity="0.35" d="M1020.18 479.431C1017.87 481.739 1014.03 481.739 1011.46 479.431C1009.15 477.123 1009.15 473.276 1011.46 470.712C1013.77 468.148 1017.62 468.404 1020.18 470.712C1022.49 473.02 1022.49 476.867 1020.18 479.431Z" fill="white"/>
<path opacity="0.35" d="M1037.88 503.279C1041.28 503.279 1044.03 500.524 1044.03 497.125C1044.03 493.726 1041.28 490.97 1037.88 490.97C1034.48 490.97 1031.72 493.726 1031.72 497.125C1031.72 500.524 1034.48 503.279 1037.88 503.279Z" fill="white"/>
<path opacity="0.35" d="M1064.55 523.794C1062.24 526.102 1058.39 526.102 1055.83 523.794C1053.52 521.486 1053.52 517.64 1055.83 515.075C1058.14 512.768 1061.98 512.768 1064.55 515.075C1066.86 517.383 1066.86 521.23 1064.55 523.794Z" fill="white"/>
<path opacity="0.35" d="M1086.6 545.847C1084.3 548.155 1080.45 548.155 1077.88 545.847C1075.58 543.539 1075.58 539.693 1077.88 537.129C1080.19 534.821 1084.04 534.821 1086.6 537.129C1089.17 539.693 1089.17 543.539 1086.6 545.847Z" fill="white"/>
<path opacity="0.35" d="M954.529 456.095C952.221 458.403 948.374 458.403 945.809 456.095C943.501 453.787 943.501 449.941 945.809 447.377C948.117 445.069 951.964 445.069 954.529 447.377C956.837 449.941 956.837 453.787 954.529 456.095Z" fill="white"/>
<path opacity="0.35" d="M976.84 478.405C974.532 480.713 970.685 480.713 968.121 478.405C965.813 476.097 965.813 472.251 968.121 469.687C970.429 467.379 974.276 467.379 976.84 469.687C979.148 471.995 979.148 475.841 976.84 478.405Z" fill="white"/>
<path opacity="0.35" d="M994.536 502.254C997.935 502.254 1000.69 499.498 1000.69 496.099C1000.69 492.7 997.935 489.945 994.536 489.945C991.137 489.945 988.381 492.7 988.381 496.099C988.381 499.498 991.137 502.254 994.536 502.254Z" fill="white"/>
<path opacity="0.35" d="M1021.21 522.768C1018.9 525.076 1015.05 525.076 1012.49 522.768C1010.18 520.46 1010.18 516.614 1012.49 514.049C1014.8 511.742 1018.64 511.742 1021.21 514.049C1023.52 516.357 1023.52 520.204 1021.21 522.768Z" fill="white"/>
<path opacity="0.35" d="M1043.26 544.822C1040.95 547.13 1037.11 547.13 1034.54 544.822C1032.23 542.514 1032.23 538.667 1034.54 536.103C1036.85 533.795 1040.7 533.795 1043.26 536.103C1045.83 538.667 1045.83 542.514 1043.26 544.822Z" fill="white"/>
<path opacity="0.35" d="M1061.21 568.927C1064.61 568.927 1067.37 566.171 1067.37 562.772C1067.37 559.373 1064.61 556.618 1061.21 556.618C1057.81 556.618 1055.06 559.373 1055.06 562.772C1055.06 566.171 1057.81 568.927 1061.21 568.927Z" fill="white"/>
<path opacity="0.35" d="M929.139 479.175C932.539 479.175 935.294 476.419 935.294 473.02C935.294 469.621 932.539 466.866 929.139 466.866C925.74 466.866 922.984 469.621 922.984 473.02C922.984 476.419 925.74 479.175 929.139 479.175Z" fill="white"/>
<path opacity="0.35" d="M955.554 499.433C953.246 501.741 949.399 501.741 946.835 499.433C944.526 497.125 944.526 493.278 946.835 490.714C949.143 488.406 952.99 488.406 955.554 490.714C957.862 493.278 957.862 497.125 955.554 499.433Z" fill="white"/>
<path opacity="0.35" d="M977.866 521.743C975.558 524.051 971.711 524.051 969.147 521.743C966.839 519.435 966.839 515.588 969.147 513.024C971.455 510.716 975.301 510.716 977.866 513.024C980.174 515.332 980.174 519.435 977.866 521.743Z" fill="white"/>
<path opacity="0.35" d="M995.561 545.848C998.961 545.848 1001.72 543.092 1001.72 539.693C1001.72 536.294 998.961 533.539 995.561 533.539C992.162 533.539 989.406 536.294 989.406 539.693C989.406 543.092 992.162 545.848 995.561 545.848Z" fill="white"/>
<path opacity="0.35" d="M1022.23 566.106C1019.92 568.414 1016.08 568.414 1013.51 566.106C1011.21 563.798 1011.21 559.951 1013.51 557.387C1015.82 555.079 1019.67 555.079 1022.23 557.387C1024.54 559.951 1024.54 563.798 1022.23 566.106Z" fill="white"/>
<path opacity="0.35" d="M1044.29 588.415C1041.98 590.723 1038.13 590.723 1035.57 588.415C1033.26 586.108 1033.26 582.261 1035.57 579.697C1037.88 577.389 1041.72 577.389 1044.29 579.697C1046.85 582.005 1046.85 585.851 1044.29 588.415Z" fill="white"/>
</g>
<g opacity="0.35">
<path opacity="0.35" d="M227.476 776.382C224.912 778.946 220.808 778.946 218.244 776.382C215.679 773.817 215.679 769.714 218.244 767.15C220.808 764.586 224.912 764.586 227.476 767.15C230.041 769.714 230.041 773.817 227.476 776.382Z" fill="white"/>
<path opacity="0.35" d="M250.814 799.974C248.249 802.538 244.146 802.538 241.582 799.974C239.017 797.409 239.017 793.306 241.582 790.742C244.146 788.178 248.249 788.178 250.814 790.742C253.379 793.306 253.379 797.409 250.814 799.974Z" fill="white"/>
<path opacity="0.35" d="M269.792 825.361C273.333 825.361 276.203 822.49 276.203 818.95C276.203 815.409 273.333 812.539 269.792 812.539C266.251 812.539 263.38 815.409 263.38 818.95C263.38 822.49 266.251 825.361 269.792 825.361Z" fill="white"/>
<path opacity="0.35" d="M298.002 846.901C295.437 849.465 291.334 849.465 288.769 846.901C286.205 844.337 286.205 840.234 288.769 837.669C291.334 835.105 295.437 835.105 298.002 837.669C300.566 840.234 300.566 844.593 298.002 846.901Z" fill="white"/>
<path opacity="0.35" d="M321.339 870.493C318.775 873.057 314.672 873.057 312.107 870.493C309.542 867.929 309.542 863.826 312.107 861.261C314.672 858.697 318.775 858.697 321.339 861.261C323.904 863.826 323.904 867.929 321.339 870.493Z" fill="white"/>
<path opacity="0.35" d="M340.317 895.88C343.858 895.88 346.729 893.01 346.729 889.469C346.729 885.928 343.858 883.058 340.317 883.058C336.776 883.058 333.906 885.928 333.906 889.469C333.906 893.01 336.776 895.88 340.317 895.88Z" fill="white"/>
<path opacity="0.35" d="M200.292 800.743C203.833 800.743 206.704 797.873 206.704 794.332C206.704 790.792 203.833 787.921 200.292 787.921C196.751 787.921 193.881 790.792 193.881 794.332C193.881 797.873 196.751 800.743 200.292 800.743Z" fill="white"/>
<path opacity="0.35" d="M228.502 822.54C225.937 825.104 221.834 825.104 219.27 822.54C216.705 819.976 216.705 815.873 219.27 813.308C221.834 810.744 225.937 810.744 228.502 813.308C231.067 815.873 231.067 819.976 228.502 822.54Z" fill="white"/>
<path opacity="0.35" d="M252.096 845.876C249.532 848.44 245.428 848.44 242.864 845.876C240.299 843.311 240.299 839.208 242.864 836.644C245.428 834.08 249.532 834.08 252.096 836.644C254.404 839.208 254.404 843.311 252.096 845.876Z" fill="white"/>
<path opacity="0.35" d="M270.818 871.263C274.359 871.263 277.229 868.392 277.229 864.852C277.229 861.311 274.359 858.441 270.818 858.441C267.277 858.441 264.406 861.311 264.406 864.852C264.406 868.392 267.277 871.263 270.818 871.263Z" fill="white"/>
<path opacity="0.35" d="M299.027 893.059C296.463 895.624 292.36 895.624 289.795 893.059C287.23 890.495 287.23 886.392 289.795 883.828C292.36 881.263 296.463 881.263 299.027 883.828C301.592 886.392 301.592 890.495 299.027 893.059Z" fill="white"/>
<path opacity="0.35" d="M322.622 916.395C320.057 918.959 315.954 918.959 313.389 916.395C310.825 913.831 310.825 909.728 313.389 907.163C315.954 904.599 320.057 904.599 322.622 907.163C325.186 909.728 325.186 913.831 322.622 916.395Z" fill="white"/>
<path opacity="0.35" d="M177.98 823.309C181.521 823.309 184.392 820.439 184.392 816.898C184.392 813.358 181.521 810.487 177.98 810.487C174.439 810.487 171.569 813.358 171.569 816.898C171.569 820.439 174.439 823.309 177.98 823.309Z" fill="white"/>
<path opacity="0.35" d="M205.934 844.85C203.37 847.414 199.266 847.414 196.702 844.85C194.137 842.285 194.137 838.182 196.702 835.618C199.266 833.054 203.37 833.054 205.934 835.618C208.499 838.182 208.499 842.285 205.934 844.85Z" fill="white"/>
<path opacity="0.35" d="M224.912 870.237C228.453 870.237 231.323 867.366 231.323 863.826C231.323 860.285 228.453 857.415 224.912 857.415C221.371 857.415 218.5 860.285 218.5 863.826C218.5 867.366 221.371 870.237 224.912 870.237Z" fill="white"/>
<path opacity="0.35" d="M253.122 891.777C250.558 894.341 246.454 894.341 243.89 891.777C241.325 889.213 241.325 885.11 243.89 882.545C246.454 879.981 250.558 879.981 253.122 882.545C255.687 885.366 255.687 889.469 253.122 891.777Z" fill="white"/>
<path opacity="0.35" d="M276.46 915.369C273.895 917.933 269.792 917.933 267.227 915.369C264.663 912.805 264.663 908.702 267.227 906.137C269.792 903.573 273.895 903.573 276.46 906.137C279.024 908.702 279.024 912.805 276.46 915.369Z" fill="white"/>
<path opacity="0.35" d="M295.437 940.756C298.978 940.756 301.849 937.886 301.849 934.345C301.849 930.804 298.978 927.934 295.437 927.934C291.896 927.934 289.026 930.804 289.026 934.345C289.026 937.886 291.896 940.756 295.437 940.756Z" fill="white"/>
<path opacity="0.35" d="M155.412 845.619C158.953 845.619 161.824 842.749 161.824 839.208C161.824 835.668 158.953 832.797 155.412 832.797C151.871 832.797 149.001 835.668 149.001 839.208C149.001 842.749 151.871 845.619 155.412 845.619Z" fill="white"/>
<path opacity="0.35" d="M183.622 867.416C181.058 869.98 176.954 869.98 174.39 867.416C171.825 864.852 171.825 860.749 174.39 858.184C176.954 855.62 181.058 855.62 183.622 858.184C186.187 860.749 186.187 864.852 183.622 867.416Z" fill="white"/>
<path opacity="0.35" d="M206.96 890.752C204.395 893.316 200.292 893.316 197.728 890.752C195.163 888.187 195.163 884.084 197.728 881.52C200.292 878.956 204.395 878.956 206.96 881.52C209.525 884.084 209.525 888.187 206.96 890.752Z" fill="white"/>
<path opacity="0.35" d="M225.938 916.139C229.479 916.139 232.349 913.268 232.349 909.728C232.349 906.187 229.479 903.317 225.938 903.317C222.397 903.317 219.526 906.187 219.526 909.728C219.526 913.268 222.397 916.139 225.938 916.139Z" fill="white"/>
<path opacity="0.35" d="M254.148 937.935C251.583 940.499 247.48 940.499 244.915 937.935C242.351 935.371 242.351 931.268 244.915 928.704C247.48 926.139 251.583 926.139 254.148 928.704C256.712 931.268 256.712 935.371 254.148 937.935Z" fill="white"/>
<path opacity="0.35" d="M277.742 961.271C275.177 963.835 271.074 963.835 268.509 961.271C265.945 958.707 265.945 954.604 268.509 952.039C271.074 949.475 275.177 949.475 277.742 952.039C280.05 954.86 280.05 958.963 277.742 961.271Z" fill="white"/>
<path opacity="0.35" d="M133.1 868.185C136.641 868.185 139.512 865.315 139.512 861.774C139.512 858.234 136.641 855.363 133.1 855.363C129.559 855.363 126.689 858.234 126.689 861.774C126.689 865.315 129.559 868.185 133.1 868.185Z" fill="white"/>
<path opacity="0.35" d="M156.438 891.521C159.979 891.521 162.849 888.65 162.849 885.11C162.849 881.569 159.979 878.699 156.438 878.699C152.897 878.699 150.026 881.569 150.026 885.11C150.026 888.65 152.897 891.521 156.438 891.521Z" fill="white"/>
<path opacity="0.35" d="M180.032 915.113C183.573 915.113 186.443 912.242 186.443 908.702C186.443 905.161 183.573 902.291 180.032 902.291C176.491 902.291 173.621 905.161 173.621 908.702C173.621 912.242 176.491 915.113 180.032 915.113Z" fill="white"/>
<path opacity="0.35" d="M208.242 936.91C205.678 939.474 201.574 939.474 199.01 936.91C196.445 934.345 196.445 930.242 199.01 927.678C201.574 925.114 205.678 925.114 208.242 927.678C210.55 930.242 210.55 934.345 208.242 936.91Z" fill="white"/>
<path opacity="0.35" d="M231.58 960.245C229.015 962.809 224.912 962.809 222.347 960.245C219.783 957.681 219.783 953.578 222.347 951.013C224.912 948.449 229.015 948.449 231.58 951.013C234.144 953.578 234.144 957.681 231.58 960.245Z" fill="white"/>
<path opacity="0.35" d="M250.557 985.632C254.098 985.632 256.969 982.762 256.969 979.221C256.969 975.681 254.098 972.81 250.557 972.81C247.016 972.81 244.146 975.681 244.146 979.221C244.146 982.762 247.016 985.632 250.557 985.632Z" fill="white"/>
<path opacity="0.35" d="M110.532 890.495C114.073 890.495 116.944 887.625 116.944 884.084C116.944 880.544 114.073 877.673 110.532 877.673C106.992 877.673 104.121 880.544 104.121 884.084C104.121 887.625 106.992 890.495 110.532 890.495Z" fill="white"/>
<path opacity="0.35" d="M138.742 912.292C136.178 914.856 132.074 914.856 129.51 912.292C126.945 909.728 126.945 905.625 129.51 903.06C132.074 900.496 136.178 900.496 138.742 903.06C141.307 905.625 141.307 909.728 138.742 912.292Z" fill="white"/>
<path opacity="0.35" d="M162.08 935.628C159.516 938.192 155.412 938.192 152.848 935.628C150.283 933.063 150.283 928.96 152.848 926.396C155.412 923.832 159.516 923.832 162.08 926.396C164.645 929.217 164.645 933.32 162.08 935.628Z" fill="white"/>
<path opacity="0.35" d="M181.058 961.015C184.599 961.015 187.469 958.144 187.469 954.604C187.469 951.063 184.599 948.193 181.058 948.193C177.517 948.193 174.646 951.063 174.646 954.604C174.646 958.144 177.517 961.015 181.058 961.015Z" fill="white"/>
<path opacity="0.35" d="M209.268 982.811C206.703 985.376 202.6 985.376 200.035 982.811C197.471 980.247 197.471 976.144 200.035 973.58C202.6 971.015 206.703 971.015 209.268 973.58C211.832 976.144 211.832 980.247 209.268 982.811Z" fill="white"/>
<path opacity="0.35" d="M232.606 1006.4C230.041 1008.97 225.938 1008.97 223.373 1006.4C220.809 1003.84 220.809 999.736 223.373 997.172C225.938 994.607 230.041 994.607 232.606 997.172C235.17 999.736 235.17 1003.84 232.606 1006.4Z" fill="white"/>
</g>
<g opacity="0.35">
<path opacity="0.35" d="M482.906 79.9063C481.111 81.7013 478.033 81.7013 476.238 79.9063C474.443 78.1112 474.443 75.034 476.238 73.239C478.033 71.4439 481.111 71.4439 482.906 73.239C484.701 75.034 484.701 77.8548 482.906 79.9063Z" fill="white"/>
<path opacity="0.35" d="M496.754 98.626C499.446 98.626 501.627 96.4446 501.627 93.7537C501.627 91.0628 499.446 88.8815 496.754 88.8815C494.063 88.8815 491.882 91.0628 491.882 93.7537C491.882 96.4446 494.063 98.626 496.754 98.626Z" fill="white"/>
<path opacity="0.35" d="M513.938 115.807C516.629 115.807 518.81 113.626 518.81 110.935C518.81 108.244 516.629 106.062 513.938 106.062C511.246 106.062 509.065 108.244 509.065 110.935C509.065 113.626 511.246 115.807 513.938 115.807Z" fill="white"/>
<path opacity="0.35" d="M531.376 132.988C534.067 132.988 536.249 130.807 536.249 128.116C536.249 125.425 534.067 123.244 531.376 123.244C528.685 123.244 526.503 125.425 526.503 128.116C526.503 130.807 528.685 132.988 531.376 132.988Z" fill="white"/>
<path opacity="0.35" d="M548.559 150.169C551.25 150.169 553.432 147.988 553.432 145.297C553.432 142.606 551.25 140.425 548.559 140.425C545.868 140.425 543.687 142.606 543.687 145.297C543.687 147.988 545.868 150.169 548.559 150.169Z" fill="white"/>
<path opacity="0.35" d="M565.742 167.35C568.433 167.35 570.615 165.169 570.615 162.478C570.615 159.787 568.433 157.606 565.742 157.606C563.051 157.606 560.869 159.787 560.869 162.478C560.869 165.169 563.051 167.35 565.742 167.35Z" fill="white"/>
<path opacity="0.35" d="M466.493 96.3179C464.698 98.1129 461.621 98.1129 459.825 96.3179C458.03 94.5229 458.03 91.4456 459.825 89.6506C461.621 87.8556 464.698 87.8556 466.493 89.6506C468.288 91.4456 468.288 94.2664 466.493 96.3179Z" fill="white"/>
<path opacity="0.35" d="M483.676 113.499C481.881 115.294 478.803 115.294 477.008 113.499C475.213 111.704 475.213 108.627 477.008 106.832C478.803 105.037 481.881 105.037 483.676 106.832C485.471 108.627 485.471 111.704 483.676 113.499Z" fill="white"/>
<path opacity="0.35" d="M500.858 130.68C499.063 132.475 495.985 132.475 494.19 130.68C492.395 128.885 492.395 125.808 494.19 124.013C495.985 122.218 499.063 122.218 500.858 124.013C502.91 125.808 502.91 128.885 500.858 130.68Z" fill="white"/>
<path opacity="0.35" d="M518.297 147.861C516.502 149.656 513.425 149.656 511.63 147.861C509.834 146.066 509.834 142.989 511.63 141.194C513.425 139.399 516.502 139.399 518.297 141.194C520.093 142.989 520.093 146.066 518.297 147.861Z" fill="white"/>
<path opacity="0.35" d="M535.48 165.299C533.684 167.094 530.607 167.094 528.812 165.299C527.017 163.504 527.017 160.427 528.812 158.632C530.607 156.837 533.684 156.837 535.48 158.632C537.275 160.427 537.275 163.247 535.48 165.299Z" fill="white"/>
<path opacity="0.35" d="M552.662 182.48C550.867 184.275 547.79 184.275 545.994 182.48C544.199 180.685 544.199 177.608 545.994 175.813C547.79 174.018 550.867 174.018 552.662 175.813C554.457 177.608 554.457 180.429 552.662 182.48Z" fill="white"/>
<path opacity="0.35" d="M450.08 112.73C448.285 114.525 445.208 114.525 443.412 112.73C441.617 110.935 441.617 107.858 443.412 106.063C445.208 104.268 448.285 104.268 450.08 106.063C451.875 107.858 451.875 110.935 450.08 112.73Z" fill="white"/>
<path opacity="0.35" d="M463.929 131.45C466.62 131.45 468.801 129.268 468.801 126.577C468.801 123.886 466.62 121.705 463.929 121.705C461.238 121.705 459.056 123.886 459.056 126.577C459.056 129.268 461.238 131.45 463.929 131.45Z" fill="white"/>
<path opacity="0.35" d="M481.111 148.631C483.803 148.631 485.984 146.449 485.984 143.758C485.984 141.067 483.803 138.886 481.111 138.886C478.42 138.886 476.239 141.067 476.239 143.758C476.239 146.449 478.42 148.631 481.111 148.631Z" fill="white"/>
<path opacity="0.35" d="M498.294 165.812C500.985 165.812 503.166 163.63 503.166 160.939C503.166 158.249 500.985 156.067 498.294 156.067C495.602 156.067 493.421 158.249 493.421 160.939C493.421 163.63 495.602 165.812 498.294 165.812Z" fill="white"/>
<path opacity="0.35" d="M515.477 183.249C518.168 183.249 520.349 181.068 520.349 178.377C520.349 175.686 518.168 173.505 515.477 173.505C512.786 173.505 510.604 175.686 510.604 178.377C510.604 181.068 512.786 183.249 515.477 183.249Z" fill="white"/>
<path opacity="0.35" d="M532.915 200.43C535.606 200.43 537.788 198.249 537.788 195.558C537.788 192.867 535.606 190.686 532.915 190.686C530.224 190.686 528.042 192.867 528.042 195.558C528.042 198.249 530.224 200.43 532.915 200.43Z" fill="white"/>
<path opacity="0.35" d="M433.667 129.142C431.872 130.937 428.794 130.937 426.999 129.142C425.204 127.347 425.204 124.269 426.999 122.474C428.794 120.679 431.872 120.679 433.667 122.474C435.462 124.269 435.462 127.347 433.667 129.142Z" fill="white"/>
<path opacity="0.35" d="M450.849 146.323C449.054 148.118 445.977 148.118 444.181 146.323C442.386 144.528 442.386 141.45 444.181 139.655C445.977 137.86 449.054 137.86 450.849 139.655C452.644 141.45 452.644 144.528 450.849 146.323Z" fill="white"/>
<path opacity="0.35" d="M468.032 163.504C466.237 165.299 463.159 165.299 461.364 163.504C459.569 161.709 459.569 158.632 461.364 156.837C463.159 155.042 466.237 155.042 468.032 156.837C469.827 158.632 469.827 161.709 468.032 163.504Z" fill="white"/>
<path opacity="0.35" d="M485.215 180.941C483.42 182.736 480.342 182.736 478.547 180.941C476.752 179.146 476.752 176.069 478.547 174.274C480.342 172.479 483.42 172.479 485.215 174.274C487.01 176.069 487.01 178.89 485.215 180.941Z" fill="white"/>
<path opacity="0.35" d="M502.397 198.123C500.602 199.918 497.524 199.918 495.729 198.123C493.934 196.328 493.934 193.25 495.729 191.455C497.524 189.66 500.602 189.66 502.397 191.455C504.449 193.25 504.449 196.328 502.397 198.123Z" fill="white"/>
<path opacity="0.35" d="M519.836 215.304C518.041 217.099 514.964 217.099 513.169 215.304C511.373 213.509 511.373 210.431 513.169 208.636C514.964 206.841 518.041 206.841 519.836 208.636C521.632 210.431 521.632 213.509 519.836 215.304Z" fill="white"/>
<path opacity="0.35" d="M416.998 145.554C415.202 147.349 412.125 147.349 410.33 145.554C408.535 143.759 408.535 140.681 410.33 138.886C412.125 137.091 415.202 137.091 416.998 138.886C419.049 140.681 419.049 143.759 416.998 145.554Z" fill="white"/>
<path opacity="0.35" d="M434.436 162.735C432.641 164.53 429.563 164.53 427.768 162.735C425.973 160.94 425.973 157.862 427.768 156.067C429.563 154.272 432.641 154.272 434.436 156.067C436.231 157.862 436.231 160.94 434.436 162.735Z" fill="white"/>
<path opacity="0.35" d="M448.285 181.454C450.976 181.454 453.157 179.273 453.157 176.582C453.157 173.891 450.976 171.71 448.285 171.71C445.594 171.71 443.412 173.891 443.412 176.582C443.412 179.273 445.594 181.454 448.285 181.454Z" fill="white"/>
<path opacity="0.35" d="M465.467 198.892C468.158 198.892 470.34 196.711 470.34 194.02C470.34 191.329 468.158 189.147 465.467 189.147C462.776 189.147 460.595 191.329 460.595 194.02C460.595 196.711 462.776 198.892 465.467 198.892Z" fill="white"/>
<path opacity="0.35" d="M482.65 216.073C485.341 216.073 487.522 213.892 487.522 211.201C487.522 208.51 485.341 206.328 482.65 206.328C479.958 206.328 477.777 208.51 477.777 211.201C477.777 213.892 479.958 216.073 482.65 216.073Z" fill="white"/>
<path opacity="0.35" d="M499.833 233.254C502.524 233.254 504.705 231.073 504.705 228.382C504.705 225.691 502.524 223.51 499.833 223.51C497.142 223.51 494.96 225.691 494.96 228.382C494.96 231.073 497.142 233.254 499.833 233.254Z" fill="white"/>
<path opacity="0.35" d="M397.25 163.504C399.941 163.504 402.123 161.323 402.123 158.632C402.123 155.941 399.941 153.759 397.25 153.759C394.559 153.759 392.377 155.941 392.377 158.632C392.377 161.323 394.559 163.504 397.25 163.504Z" fill="white"/>
<path opacity="0.35" d="M418.023 179.403C416.228 181.198 413.15 181.198 411.355 179.403C409.56 177.608 409.56 174.531 411.355 172.736C413.15 170.941 416.228 170.941 418.023 172.736C419.818 174.531 419.818 177.351 418.023 179.403Z" fill="white"/>
<path opacity="0.35" d="M435.206 196.584C433.41 198.379 430.333 198.379 428.538 196.584C426.743 194.789 426.743 191.712 428.538 189.917C430.333 188.122 433.41 188.122 435.206 189.917C437.001 191.712 437.001 194.789 435.206 196.584Z" fill="white"/>
<path opacity="0.35" d="M452.388 213.765C450.593 215.56 447.515 215.56 445.72 213.765C443.925 211.97 443.925 208.893 445.72 207.098C447.515 205.303 450.593 205.303 452.388 207.098C454.183 208.893 454.183 211.97 452.388 213.765Z" fill="white"/>
<path opacity="0.35" d="M469.571 230.946C467.776 232.741 464.698 232.741 462.903 230.946C461.108 229.151 461.108 226.074 462.903 224.279C464.698 222.484 467.776 222.484 469.571 224.279C471.366 226.074 471.366 229.151 469.571 230.946Z" fill="white"/>
<path opacity="0.35" d="M486.753 248.127C484.958 249.922 481.88 249.922 480.085 248.127C478.29 246.332 478.29 243.255 480.085 241.46C481.88 239.665 484.958 239.665 486.753 241.46C488.805 243.255 488.805 246.332 486.753 248.127Z" fill="white"/>
</g>
<g opacity="0.35">
<path opacity="0.35" d="M671.24 363.114C668.044 366.31 662.718 366.31 659.522 363.114C656.326 359.919 656.326 354.592 659.522 351.397C662.718 348.201 668.044 348.201 671.24 351.397C674.436 354.592 674.436 359.919 671.24 363.114Z" fill="white"/>
<path opacity="0.35" d="M695.317 395.497C699.906 395.497 703.627 391.777 703.627 387.188C703.627 382.6 699.906 378.88 695.317 378.88C690.728 378.88 687.008 382.6 687.008 387.188C687.008 391.777 690.728 395.497 695.317 395.497Z" fill="white"/>
<path opacity="0.35" d="M725.146 425.537C729.736 425.537 733.456 421.817 733.456 417.228C733.456 412.639 729.736 408.919 725.146 408.919C720.557 408.919 716.837 412.639 716.837 417.228C716.837 421.817 720.557 425.537 725.146 425.537Z" fill="white"/>
<path opacity="0.35" d="M755.187 455.363C759.777 455.363 763.497 451.643 763.497 447.054C763.497 442.465 759.777 438.745 755.187 438.745C750.598 438.745 746.878 442.465 746.878 447.054C746.878 451.643 750.598 455.363 755.187 455.363Z" fill="white"/>
<path opacity="0.35" d="M785.017 485.402C789.606 485.402 793.326 481.683 793.326 477.094C793.326 472.505 789.606 468.785 785.017 468.785C780.427 468.785 776.707 472.505 776.707 477.094C776.707 481.683 780.427 485.402 785.017 485.402Z" fill="white"/>
<path opacity="0.35" d="M815.058 515.229C819.648 515.229 823.368 511.509 823.368 506.92C823.368 502.331 819.648 498.611 815.058 498.611C810.469 498.611 806.749 502.331 806.749 506.92C806.749 511.509 810.469 515.229 815.058 515.229Z" fill="white"/>
<path opacity="0.35" d="M642.477 391.662C639.281 394.858 633.954 394.858 630.758 391.662C627.562 388.467 627.562 383.14 630.758 379.945C633.954 376.749 639.281 376.749 642.477 379.945C645.886 383.353 645.886 388.467 642.477 391.662Z" fill="white"/>
<path opacity="0.35" d="M672.519 421.702C669.323 424.897 663.997 424.897 660.801 421.702C657.605 418.506 657.605 413.18 660.801 409.984C663.997 406.789 669.323 406.789 672.519 409.984C675.715 413.18 675.715 418.506 672.519 421.702Z" fill="white"/>
<path opacity="0.35" d="M702.348 451.528C699.152 454.724 693.825 454.724 690.629 451.528C687.433 448.333 687.433 443.006 690.629 439.811C693.825 436.615 699.152 436.615 702.348 439.811C705.757 443.219 705.757 448.333 702.348 451.528Z" fill="white"/>
<path opacity="0.35" d="M732.39 481.568C729.194 484.763 723.867 484.763 720.671 481.568C717.475 478.372 717.475 473.046 720.671 469.85C723.867 466.654 729.194 466.654 732.39 469.85C735.586 473.046 735.586 478.372 732.39 481.568Z" fill="white"/>
<path opacity="0.35" d="M762.219 511.394C759.023 514.59 753.696 514.59 750.5 511.394C747.305 508.198 747.305 502.872 750.5 499.677C753.696 496.481 759.023 496.481 762.219 499.677C765.628 503.085 765.628 508.198 762.219 511.394Z" fill="white"/>
<path opacity="0.35" d="M792.261 541.433C789.065 544.629 783.738 544.629 780.542 541.433C777.347 538.238 777.347 532.911 780.542 529.716C783.738 526.52 789.065 526.52 792.261 529.716C795.457 532.911 795.457 538.238 792.261 541.433Z" fill="white"/>
<path opacity="0.35" d="M613.926 420.423C610.731 423.619 605.404 423.619 602.208 420.423C599.012 417.228 599.012 411.902 602.208 408.706C605.404 405.51 610.731 405.51 613.926 408.706C617.122 411.902 617.122 417.015 613.926 420.423Z" fill="white"/>
<path opacity="0.35" d="M638.003 452.806C642.592 452.806 646.312 449.087 646.312 444.498C646.312 439.909 642.592 436.189 638.003 436.189C633.414 436.189 629.693 439.909 629.693 444.498C629.693 449.087 633.414 452.806 638.003 452.806Z" fill="white"/>
<path opacity="0.35" d="M668.045 482.633C672.634 482.633 676.354 478.913 676.354 474.324C676.354 469.735 672.634 466.015 668.045 466.015C663.456 466.015 659.735 469.735 659.735 474.324C659.735 478.913 663.456 482.633 668.045 482.633Z" fill="white"/>
<path opacity="0.35" d="M697.873 512.672C702.463 512.672 706.183 508.952 706.183 504.363C706.183 499.774 702.463 496.054 697.873 496.054C693.284 496.054 689.564 499.774 689.564 504.363C689.564 508.952 693.284 512.672 697.873 512.672Z" fill="white"/>
<path opacity="0.35" d="M727.916 542.498C732.505 542.498 736.225 538.778 736.225 534.19C736.225 529.601 732.505 525.881 727.916 525.881C723.327 525.881 719.606 529.601 719.606 534.19C719.606 538.778 723.327 542.498 727.916 542.498Z" fill="white"/>
<path opacity="0.35" d="M757.744 572.538C762.334 572.538 766.054 568.818 766.054 564.229C766.054 559.64 762.334 555.92 757.744 555.92C753.155 555.92 749.435 559.64 749.435 564.229C749.435 568.818 753.155 572.538 757.744 572.538Z" fill="white"/>
<path opacity="0.35" d="M585.376 448.972C582.18 452.167 576.854 452.167 573.658 448.972C570.462 445.776 570.462 440.45 573.658 437.254C576.854 434.059 582.18 434.059 585.376 437.254C588.572 440.45 588.572 445.776 585.376 448.972Z" fill="white"/>
<path opacity="0.35" d="M615.418 478.798C612.222 481.994 606.896 481.994 603.7 478.798C600.504 475.602 600.504 470.276 603.7 467.08C606.896 463.885 612.222 463.885 615.418 467.08C618.614 470.489 618.614 475.602 615.418 478.798Z" fill="white"/>
<path opacity="0.35" d="M645.247 508.837C642.051 512.033 636.725 512.033 633.529 508.837C630.333 505.642 630.333 500.315 633.529 497.12C636.725 493.924 642.051 493.924 645.247 497.12C648.443 500.315 648.443 505.642 645.247 508.837Z" fill="white"/>
<path opacity="0.35" d="M675.289 538.664C672.093 541.859 666.767 541.859 663.571 538.664C660.375 535.468 660.375 530.142 663.571 526.946C666.767 523.75 672.093 523.75 675.289 526.946C678.485 530.355 678.485 535.468 675.289 538.664Z" fill="white"/>
<path opacity="0.35" d="M705.118 568.703C701.922 571.899 696.596 571.899 693.4 568.703C690.204 565.507 690.204 560.181 693.4 556.986C696.596 553.79 701.922 553.79 705.118 556.986C708.314 560.181 708.314 565.507 705.118 568.703Z" fill="white"/>
<path opacity="0.35" d="M735.16 598.529C731.964 601.725 726.637 601.725 723.441 598.529C720.245 595.334 720.245 590.008 723.441 586.812C726.637 583.616 731.964 583.616 735.16 586.812C738.356 590.221 738.356 595.334 735.16 598.529Z" fill="white"/>
<path opacity="0.35" d="M556.826 477.52C553.63 480.715 548.303 480.715 545.107 477.52C541.911 474.324 541.911 468.998 545.107 465.802C548.303 462.606 553.63 462.606 556.826 465.802C560.022 468.998 560.022 474.324 556.826 477.52Z" fill="white"/>
<path opacity="0.35" d="M586.655 507.346C583.459 510.542 578.132 510.542 574.936 507.346C571.74 504.15 571.74 498.824 574.936 495.628C578.132 492.433 583.459 492.433 586.655 495.628C590.064 499.037 590.064 504.15 586.655 507.346Z" fill="white"/>
<path opacity="0.35" d="M610.731 539.729C615.32 539.729 619.04 536.009 619.04 531.42C619.04 526.831 615.32 523.111 610.731 523.111C606.142 523.111 602.421 526.831 602.421 531.42C602.421 536.009 606.142 539.729 610.731 539.729Z" fill="white"/>
<path opacity="0.35" d="M640.773 569.768C645.362 569.768 649.082 566.048 649.082 561.459C649.082 556.871 645.362 553.151 640.773 553.151C636.184 553.151 632.463 556.871 632.463 561.459C632.463 566.048 636.184 569.768 640.773 569.768Z" fill="white"/>
<path opacity="0.35" d="M670.815 599.808C675.404 599.808 679.124 596.088 679.124 591.499C679.124 586.91 675.404 583.19 670.815 583.19C666.226 583.19 662.505 586.91 662.505 591.499C662.505 596.088 666.226 599.808 670.815 599.808Z" fill="white"/>
<path opacity="0.35" d="M700.644 629.634C705.233 629.634 708.953 625.914 708.953 621.325C708.953 616.737 705.233 613.017 700.644 613.017C696.055 613.017 692.334 616.737 692.334 621.325C692.334 625.914 696.055 629.634 700.644 629.634Z" fill="white"/>
<path opacity="0.35" d="M522.309 508.624C526.899 508.624 530.619 504.904 530.619 500.315C530.619 495.727 526.899 492.007 522.309 492.007C517.72 492.007 514 495.727 514 500.315C514 504.904 517.72 508.624 522.309 508.624Z" fill="white"/>
<path opacity="0.35" d="M558.105 536.107C554.909 539.303 549.582 539.303 546.386 536.107C543.19 532.911 543.19 527.585 546.386 524.39C549.582 521.194 554.909 521.194 558.105 524.39C561.301 527.585 561.301 532.698 558.105 536.107Z" fill="white"/>
<path opacity="0.35" d="M588.146 565.933C584.95 569.129 579.624 569.129 576.428 565.933C573.232 562.738 573.232 557.412 576.428 554.216C579.624 551.02 584.95 551.02 588.146 554.216C591.342 557.412 591.342 562.738 588.146 565.933Z" fill="white"/>
<path opacity="0.35" d="M617.975 595.973C614.779 599.169 609.452 599.169 606.256 595.973C603.06 592.777 603.06 587.451 606.256 584.255C609.452 581.06 614.779 581.06 617.975 584.255C621.171 587.451 621.171 592.564 617.975 595.973Z" fill="white"/>
<path opacity="0.35" d="M648.017 625.799C644.821 628.995 639.494 628.995 636.298 625.799C633.102 622.604 633.102 617.278 636.298 614.082C639.494 610.886 644.821 610.886 648.017 614.082C651.213 617.278 651.213 622.604 648.017 625.799Z" fill="white"/>
<path opacity="0.35" d="M677.845 655.839C674.649 659.034 669.323 659.034 666.127 655.839C662.931 652.643 662.931 647.317 666.127 644.121C669.323 640.925 674.649 640.925 677.845 644.121C681.041 647.317 681.041 652.643 677.845 655.839Z" fill="white"/>
</g>
</g>
<defs>
<linearGradient id="paint0_linear" x1="60.1389" y1="350.799" x2="362.165" y2="666.216" gradientUnits="userSpaceOnUse">
<stop stop-color="white" stop-opacity="0"/>
<stop offset="0.9953" stop-color="white"/>
</linearGradient>
<linearGradient id="paint1_linear" x1="688.735" y1="18.1432" x2="881.914" y2="219.888" gradientUnits="userSpaceOnUse">
<stop stop-color="white" stop-opacity="0"/>
<stop offset="0.9953" stop-color="white"/>
</linearGradient>
<linearGradient id="paint2_linear" x1="793.153" y1="789.988" x2="1028.6" y2="1035.87" gradientUnits="userSpaceOnUse">
<stop stop-color="white" stop-opacity="0"/>
<stop offset="0.9953" stop-color="white"/>
</linearGradient>
</defs>
</svg>
