<svg xmlns="http://www.w3.org/2000/svg" width="1212" height="585" fill="none" viewBox="0 0 1212 585">
    <path fill="#fff" d="M571.273 122.001l1.922 3.847 3.843 1.923-3.843 2.198-1.922 3.573-2.196-3.573-3.569-2.198 3.569-1.923 2.196-3.847zM789.79 378.917l1.373 2.473 2.471 1.374-2.471 1.374-1.373 2.473-1.372-2.473-2.471-1.374 2.471-1.374 1.372-2.473zM793.634 159.096l1.372 2.473 2.471 1.374-2.471 1.374-1.372 2.473-1.373-2.473-2.471-1.374 2.471-1.374 1.373-2.473z"/>
    <path fill="#fff" d="M243.773 485.256l1.372 2.473 2.471 1.374-2.471 1.374-1.372 2.473-1.373-2.473-2.471-1.374 2.471-1.374 1.373-2.473z" opacity=".35"/>
    <path fill="#fff" d="M146.593 48.36l1.373 2.474 2.47 1.374-2.47 1.373-1.373 2.473-1.373-2.473-2.47-1.373 2.47-1.374 1.373-2.473zM3.843 559.995l1.373 2.473 2.47 1.374-2.47 1.374-1.373 2.473-1.372-2.473L0 563.842l2.47-1.374 1.373-2.473zM21.962 98.37l1.372 2.473 2.47 1.374-2.47 1.374-1.372 2.473-1.373-2.473-2.196-1.374 2.196-1.374 1.373-2.473zM327.501 203.884l1.372 2.473 2.471 1.374-2.471 1.374-1.372 2.473-1.373-2.473-2.47-1.374 2.47-1.374 1.373-2.473zM452.956 264.61l2.47 4.946 4.942 2.748-4.942 2.473-2.47 4.946-2.745-4.946-4.942-2.473 4.942-2.748 2.745-4.946zM51.06 0l2.746 4.946 4.941 2.473-4.941 2.748-2.746 4.946-2.47-4.946-4.942-2.748 4.942-2.473L51.06 0zM1108.51 207.731l2.47 4.946 4.94 2.473-4.94 2.748-2.47 4.946-2.75-4.946-4.94-2.748 4.94-2.473 2.75-4.946zM1086.54 570.162l2.75 4.671 4.94 2.748-4.94 2.748-2.75 4.671-2.47-4.671-4.94-2.748 4.94-2.748 2.47-4.671zM65.61 478.112l1.373 2.198 2.196 1.099-2.196 1.374-1.373 2.198-1.098-2.198-2.47-1.374 2.47-1.099 1.098-2.198zM602.843 449.81l1.373 2.198 2.196 1.374-2.196 1.099-1.373 2.473-1.098-2.473-2.471-1.099 2.471-1.374 1.098-2.198zM632.491 554.775l1.098 2.473 2.471 1.099-2.471 1.374-1.098 2.198-1.373-2.198-2.196-1.374 2.196-1.099 1.373-2.473zM905.637 163.218l1.373 2.198 2.196 1.374-2.196 1.374-1.373 2.198-1.372-2.198-2.197-1.374 2.197-1.374 1.372-2.198zM1049.76 383.039l1.1 2.198 2.47 1.374-2.47 1.099-1.1 2.473-1.37-2.473-2.2-1.099 2.2-1.374 1.37-2.198zM961.913 73.915l1.098 2.473 2.197 1.1-2.197 1.373-1.098 2.198-1.372-2.198-2.196-1.374 2.196-1.099 1.372-2.473zM665.433 240.43l2.471 4.396 4.118 2.198-4.118 2.199-2.471 4.396-2.196-4.396-4.118-2.199 4.118-2.198 2.196-4.396z" opacity=".29"/>
    <path fill="#fff" d="M422.484 469.868l3.02 5.771 5.765 3.022-5.765 3.298-3.02 5.77-3.019-5.77-5.765-3.298 5.765-3.022 3.019-5.771z" opacity=".35"/>
    <path fill="#fff" d="M918.265 472.616l1.098 1.924 1.922 1.099-1.922 1.099-1.098 2.198-1.098-2.198-2.196-1.099 2.196-1.099 1.098-1.924zM975.639 250.322l1.098 2.198 2.197 1.099-2.197 1.099-1.098 1.924-1.098-1.924-1.921-1.099 1.921-1.099 1.098-2.198z"/>
    <path fill="#fff" d="M199.575 255.542l1.922 3.573 3.568 1.923-3.568 2.198-1.922 3.572-1.922-3.572-3.843-2.198 3.843-1.923 1.922-3.573zM793.634 481.134l1.372 2.473 2.471 1.374-2.471 1.649-1.372 2.473-1.373-2.473-2.745-1.649 2.745-1.374 1.373-2.473zM860.067 560.82l1.373 2.473 2.745 1.648-2.745 1.374-1.373 2.473-1.373-2.473-2.47-1.374 2.47-1.648 1.373-2.473zM852.106 268.182l1.373 2.473 2.745 1.649-2.745 1.374-1.373 2.473-1.373-2.473-2.745-1.374 2.745-1.649 1.373-2.473zM632.491 328.633l1.373 2.748 2.745 1.374-2.745 1.374-1.373 2.747-1.373-2.747-2.745-1.374 2.745-1.374 1.373-2.748zM1207.88 363.805l1.37 2.747 2.75 1.374-2.75 1.374-1.37 2.748-1.37-2.748-2.47-1.374 2.47-1.374 1.37-2.747z" opacity=".33"/>
    <g opacity=".22">
        <path fill="url(#a)" d="M188.594 151.402c-3.294 12.64-16.196 20.059-28.824 16.761-12.628-3.297-20.04-16.211-16.746-28.851 3.294-12.64 16.197-20.059 28.825-16.761 12.628 3.297 20.04 16.211 16.745 28.851z" opacity=".22"/>
        <path fill="url(#b)" d="M190.516 144.807l6.588 2.199c1.922.824 4.393 1.648 7.412 3.022 2.746 1.374 6.04 2.748 8.785 5.496.549.824 1.647 1.648 1.647 3.297V159.645c-.274.275-.549.825-.823.825-.549.549-1.098.824-1.648.824-2.196.824-4.392.824-6.588 1.099-4.392.275-9.059 0-13.726-.824-9.334-1.099-19.216-3.298-28.824-5.77-9.609-2.748-19.217-5.771-28.001-9.343-4.393-1.923-8.51-3.847-12.354-6.045-1.921-1.099-3.568-2.473-5.215-4.122-.275-.549-.824-.824-.824-1.648-.275-.55-.275-1.374 0-2.199 0-.274 1.098-1.373 1.373-1.373.549-.275 1.098-.55 1.647-.55 3.843-.824 7.412-.55 10.431-.275 3.02.275 5.765.55 7.961 1.099 4.393.825 6.863 1.374 6.863 1.374s-2.47-.275-6.863-.549c-2.196-.275-4.941-.275-7.961-.55-3.019 0-6.588 0-9.882.824-.275.275-.824.275-1.098.55-.275 0-.275.275-.275.275s0 .275-.274.275c-.275.274 0 1.099.549 1.648 1.098 1.374 3.019 2.473 4.666 3.572a99.285 99.285 0 0 0 12.079 5.496c8.51 3.297 18.119 6.32 27.727 8.793 9.608 2.473 19.216 4.671 28.55 6.045 4.666.549 9.059 1.099 13.177 1.099 3.843 0 9.608-.55 6.313-3.572-2.47-2.473-5.49-4.122-8.235-5.77l-7.138-3.573c-3.843-1.648-6.039-2.473-6.039-2.473z" opacity=".22"/>
    </g>
    <g opacity=".35">
        <path fill="url(#c)" d="M130.872 242.97l107.336 98.645c.549.55.549 1.374 0 2.198-.549.55-1.372.55-2.196.275L125.381 249.29c-1.647-1.374-1.921-4.121-.274-5.77 1.647-1.924 4.117-1.924 5.765-.55z"/>
        <path fill="url(#d)" d="M170.951 280.615l65.61 60.451c.275.274.275.824 0 1.374-.274.274-.823.274-1.372 0l-67.257-57.978c-1.099-.825-1.099-2.473-.275-3.572.824-1.1 2.471-1.1 3.294-.275z"/>
    </g>
    <g opacity=".33">
        <path fill="url(#e)" d="M846.067 164.042l51.609 47.261c.275.275.275.825 0 1.1-.274.274-.823.274-1.098 0l-52.982-45.613c-.824-.825-.824-1.924-.275-2.748.549-.55 1.922-.824 2.746 0z" opacity=".33"/>
        <path fill="url(#f)" d="M865.283 182.177l31.57 29.127c.274.274.274.549 0 .549-.275.275-.549.275-.549 0l-32.394-28.027c-.549-.55-.549-1.099 0-1.649 0-.549.824-.549 1.373 0z" opacity=".33"/>
    </g>
    <g opacity=".35">
        <g opacity=".35">
            <path fill="url(#g)" d="M56.55 242.078l142.476 130.794c.824.825.824 1.924.275 2.748-.824.824-1.922.824-2.746.275L49.413 249.772c-2.196-1.923-2.47-5.221-.549-7.419 1.922-2.198 5.49-2.473 7.687-.275z" opacity=".35"/>
            <path fill="url(#h)" d="M109.807 292.088l87.297 80.235c.549.549.549 1.099 0 1.648-.549.55-1.098.55-1.647 0l-90.042-77.212c-1.372-1.099-1.647-3.297-.274-4.671 1.098-1.099 3.294-1.374 4.666 0z" opacity=".35"/>
        </g>
        <g opacity=".35">
            <path fill="url(#i)" d="M7.961 256.092l65.335 59.901c.275.275.275.825 0 1.374-.274.275-.823.275-1.372 0L4.667 259.664c-1.098-.824-1.098-2.473-.275-3.572.824-.824 2.47-.824 3.569 0z" opacity=".35"/>
            <path fill="url(#j)" d="M32.393 279.173l39.805 36.82c.275.275.275.55 0 .825-.274.275-.549.275-.823 0l-41.178-35.447c-.549-.549-.823-1.373-.274-2.198.823-.549 1.647-.549 2.47 0z" opacity=".35"/>
        </g>
    </g>
    <g opacity=".35">
        <path fill="url(#k)" d="M1064.58 260.763l65.34 59.902c.27.274.27.824 0 1.373-.28.275-.82.275-1.37 0l-67.26-57.703c-1.1-.824-1.1-2.473-.28-3.572 1.1-.824 2.75-1.099 3.57 0z"/>
        <path fill="url(#l)" d="M1089.02 283.57l40.08 36.82c.27.275.27.549 0 .824-.28.275-.55.275-.83 0l-41.18-35.446c-.54-.55-.82-1.374-.27-2.198.82-.55 1.65-.55 2.2 0z"/>
    </g>
    <defs>
        <linearGradient id="a" x1="143.775" x2="188.058" y1="153.355" y2="137.206" gradientUnits="userSpaceOnUse">
            <stop offset=".005" stop-color="#fff"/>
            <stop offset=".973" stop-color="#fff"/>
        </linearGradient>
        <linearGradient id="b" x1="116.359" x2="214.28" y1="134.567" y2="160.431" gradientUnits="userSpaceOnUse">
            <stop offset=".005" stop-color="#fff"/>
            <stop offset=".973" stop-color="#fff"/>
        </linearGradient>
        <linearGradient id="c" x1="238.266" x2="125.217" y1="343.726" y2="243.398" gradientUnits="userSpaceOnUse">
            <stop offset=".005" stop-color="#fff"/>
            <stop offset=".994" stop-color="#fff" stop-opacity="0"/>
        </linearGradient>
        <linearGradient id="d" x1="236.812" x2="167.535" y1="342.431" y2="280.95" gradientUnits="userSpaceOnUse">
            <stop offset=".005" stop-color="#fff"/>
            <stop offset=".994" stop-color="#fff" stop-opacity="0"/>
        </linearGradient>
        <linearGradient id="e" x1="897.472" x2="843.196" y1="212.41" y2="164.241" gradientUnits="userSpaceOnUse">
            <stop offset=".005" stop-color="#fff"/>
            <stop offset=".994" stop-color="#fff" stop-opacity="0"/>
        </linearGradient>
        <linearGradient id="f" x1="896.774" x2="863.514" y1="211.788" y2="182.27" gradientUnits="userSpaceOnUse">
            <stop offset=".005" stop-color="#fff"/>
            <stop offset=".994" stop-color="#fff" stop-opacity="0"/>
        </linearGradient>
        <linearGradient id="g" x1="198.93" x2="48.832" y1="375.685" y2="242.476" gradientUnits="userSpaceOnUse">
            <stop stop-color="#fff"/>
            <stop offset=".995" stop-color="#fff" stop-opacity="0"/>
        </linearGradient>
        <linearGradient id="h" x1="197" x2="105.019" y1="373.967" y2="292.336" gradientUnits="userSpaceOnUse">
            <stop stop-color="#fff"/>
            <stop offset=".995" stop-color="#fff" stop-opacity="0"/>
        </linearGradient>
        <linearGradient id="i" x1="73.216" x2="4.348" y1="317.493" y2="256.374" gradientUnits="userSpaceOnUse">
            <stop stop-color="#fff"/>
            <stop offset=".995" stop-color="#fff" stop-opacity="0"/>
        </linearGradient>
        <linearGradient id="j" x1="72.33" x2="30.127" y1="316.704" y2="279.25" gradientUnits="userSpaceOnUse">
            <stop stop-color="#fff"/>
            <stop offset=".995" stop-color="#fff" stop-opacity="0"/>
        </linearGradient>
        <linearGradient id="k" x1="1130.06" x2="1061.19" y1="322.03" y2="260.911" gradientUnits="userSpaceOnUse">
            <stop offset=".006" stop-color="#fff"/>
            <stop offset=".995" stop-color="#fff" stop-opacity="0"/>
        </linearGradient>
        <linearGradient id="l" x1="1129.18" x2="1086.97" y1="321.242" y2="283.788" gradientUnits="userSpaceOnUse">
            <stop offset=".006" stop-color="#fff"/>
            <stop offset=".995" stop-color="#fff" stop-opacity="0"/>
        </linearGradient>
    </defs>
</svg>
