<svg xmlns="http://www.w3.org/2000/svg" viewBox="0 0 899.83 204.29"><defs><style>.cls-1{fill:#863eff;}.cls-2{fill:#363636;}</style></defs><title>Asset 3</title><g id="Layer_2" data-name="Layer 2"><g id="Layer_1-2" data-name="Layer 1"><path class="cls-1" d="M220.56,75.84c11,0,18.48,5.76,20.88,15.68H229.36c-1.28-3.76-4.24-6.16-8.88-6.16-6.24,0-10.4,4.72-10.4,13.36S214.24,112,220.48,112c4.64,0,7.52-2.08,8.88-6.08h12.08c-2.4,9.44-9.84,15.68-20.88,15.68-12.8,0-21.92-9-21.92-22.88S207.76,75.84,220.56,75.84Z"/><path class="cls-1" d="M265.36,121.6c-12.8,0-22.48-9-22.48-22.88s10-22.88,22.8-22.88,22.8,8.88,22.8,22.88S278.24,121.6,265.36,121.6Zm0-9.76c5.92,0,11.6-4.32,11.6-13.12S271.44,85.6,265.52,85.6s-11.28,4.24-11.28,13.12S259.36,111.84,265.36,111.84Z"/><path class="cls-1" d="M354.72,96.4c0-7-3.92-10.72-9.84-10.72S335,89.36,335,96.4v24.48h-11.2V96.4c0-7-3.92-10.72-9.84-10.72-6.08,0-10,3.68-10,10.72v24.48h-11.2V76.56h11.2v5.36a16.14,16.14,0,0,1,13-6c6.88,0,12.56,3,15.6,8.48a17.55,17.55,0,0,1,15.2-8.48c10.64,0,18.16,6.72,18.16,19v26h-11.2Z"/><path class="cls-1" d="M414.4,120.88H403.12v-5.6a16.35,16.35,0,0,1-13.2,6.16c-10.32,0-17.76-6.72-17.76-18.88v-26h11.2V101c0,7.12,3.92,11,9.84,11,6.08,0,9.92-3.84,9.92-11V76.56H414.4Z"/><path class="cls-1" d="M452.48,96.4c0-7.12-3.92-11-9.84-11-6.08,0-10,3.84-10,11v24.48h-11.2V76.56h11.2v5.52A16.55,16.55,0,0,1,446,75.92c10.32,0,17.68,6.72,17.68,19v26h-11.2Z"/><path class="cls-1" d="M469.12,64.72A6.89,6.89,0,1,1,476,71.28,6.57,6.57,0,0,1,469.12,64.72Zm1.2,11.84h11.2v44.32h-11.2Z"/><path class="cls-1" d="M506,75.84c5.84,0,11.44,2.72,14.48,6.88v-21h11.36v59.2H520.48v-6.56c-2.64,4.08-7.6,7.28-14.56,7.28-11.28,0-20.24-9.2-20.24-23S494.64,75.84,506,75.84Zm2.8,9.84c-6,0-11.68,4.48-11.68,12.88s5.68,13.2,11.68,13.2c6.16,0,11.76-4.64,11.76-13S515,85.68,508.8,85.68Z"/><path class="cls-1" d="M556.16,75.84c7.12,0,12,3.36,14.64,7V76.56h11.28v44.32H570.8V114.4c-2.64,3.84-7.68,7.2-14.72,7.2-11.2,0-20.16-9.2-20.16-23S544.88,75.84,556.16,75.84ZM559,85.68c-6,0-11.68,4.48-11.68,12.88s5.68,13.2,11.68,13.2c6.16,0,11.76-4.64,11.76-13S565.2,85.68,559,85.68Z"/><path class="cls-1" d="M606.48,75.84c5.84,0,11.44,2.72,14.48,6.88v-21h11.36v59.2H621v-6.56c-2.64,4.08-7.6,7.28-14.56,7.28-11.28,0-20.24-9.2-20.24-23S595.12,75.84,606.48,75.84Zm2.8,9.84c-6,0-11.68,4.48-11.68,12.88s5.68,13.2,11.68,13.2c6.16,0,11.76-4.64,11.76-13S615.44,85.68,609.28,85.68Z"/><path class="cls-1" d="M658.64,121.6c-12.88,0-22.25-9-22.25-22.88s9.13-22.88,22.25-22.88c12.8,0,21.84,8.72,21.84,21.92a26.18,26.18,0,0,1-.32,4.32h-32.4c.56,6.56,5,10.24,10.64,10.24,4.8,0,7.44-2.4,8.88-5.36h12.08C677,115.12,669.6,121.6,658.64,121.6Zm-10.8-27h21c-.16-5.84-4.8-9.52-10.56-9.52C653,85,648.72,88.48,647.84,94.56Z"/><path class="cls-1" d="M701.59,121.6c-11.12,0-18.88-6.48-19.36-14.72h11.28c.41,3.36,3.52,5.92,8,5.92s6.8-2,6.8-4.56c0-7.92-25-2.88-25-19.12,0-7.36,6.57-13.28,17.53-13.28,10.71,0,17.2,5.84,17.84,14.64H707.92c-.33-3.44-3-5.76-7.45-5.76-4.16,0-6.32,1.68-6.32,4.24,0,8.08,24.57,3,24.89,19.28C719,115.84,712.4,121.6,701.59,121.6Z"/><path class="cls-2" d="M729.19,121.44c-4.08,0-7-2.88-7-6.56s2.88-6.56,7-6.56a6.56,6.56,0,1,1,0,13.12Z"/><path class="cls-2" d="M742.79,85.76h-5.28v-9.2h5.28v-11h11.28v11H764v9.2h-9.92V107.2c0,3,1.2,4.24,4.72,4.24H764v9.44h-7c-8.48,0-14.16-3.6-14.16-13.76Z"/><path class="cls-2" d="M787.43,121.6c-12.88,0-22.24-9-22.24-22.88s9.12-22.88,22.24-22.88c12.8,0,21.84,8.72,21.84,21.92a26.18,26.18,0,0,1-.32,4.32h-32.4c.56,6.56,5,10.24,10.64,10.24,4.8,0,7.44-2.4,8.88-5.36h12.08C805.75,115.12,798.39,121.6,787.43,121.6Zm-10.8-27h21c-.16-5.84-4.8-9.52-10.56-9.52C781.75,85,777.51,88.48,776.63,94.56Z"/><path class="cls-2" d="M832.47,75.84c11,0,18.48,5.76,20.88,15.68H841.27c-1.28-3.76-4.24-6.16-8.88-6.16-6.24,0-10.4,4.72-10.4,13.36S826.15,112,832.39,112c4.64,0,7.52-2.08,8.88-6.08h12.08c-2.4,9.44-9.84,15.68-20.88,15.68-12.8,0-21.92-9-21.92-22.88S819.67,75.84,832.47,75.84Z"/><path class="cls-2" d="M857.59,61.68h11.2v20.4c2.88-3.76,7.84-6.16,13.76-6.16,10,0,17.28,6.72,17.28,19v26h-11.2V96.4c0-7.12-3.92-11-9.84-11-6.08,0-10,3.84-10,11v24.48h-11.2Z"/><path class="cls-2" d="M157.74,82.86a19.41,19.41,0,0,0-16.81,6.28,26.38,26.38,0,0,1-19.67,8.51h-1.73a27.54,27.54,0,0,1-19.36-8.18A17.74,17.74,0,0,0,87.58,84.3a17.85,17.85,0,0,0,0,35.69,17.77,17.77,0,0,0,12.53-5.15,27.59,27.59,0,0,1,19.37-8.2h1.63a26.47,26.47,0,0,1,19.76,8.49,19.43,19.43,0,1,0,16.82-32.27Z"/><path class="cls-1" d="M100.25,5.23A17.84,17.84,0,1,1,75,5.23,17.84,17.84,0,0,1,100.25,5.23ZM75,173.83a17.85,17.85,0,1,0,25.24,0A17.85,17.85,0,0,0,75,173.83Zm46.54-47.38a17.75,17.75,0,0,0-12.31,4.89A31.18,31.18,0,0,1,90,139.71l-.6,0-.58,0h-.54l-.6,0h0c-.57,0-1.14,0-1.72-.05a37.64,37.64,0,0,1,0-75.21c.58,0,1.15-.05,1.72-.05l.68,0h.36A31.24,31.24,0,0,1,109.24,73a17.7,17.7,0,0,0,12.31,4.89,17.85,17.85,0,0,0-.06-35.69A17.71,17.71,0,0,0,109.25,47,31.41,31.41,0,0,1,87.63,55.5h0A31.46,31.46,0,0,1,66,47a17.73,17.73,0,0,0-13.3-4.84A17.88,17.88,0,0,0,36.16,62.91a17.9,17.9,0,0,1-3.69,14.45l-.41.49a17.37,17.37,0,0,1-13.75,6.47,17.83,17.83,0,1,0,0,35.65,17.37,17.37,0,0,1,13.75,6.47l.41.49a17.9,17.9,0,0,1,3.69,14.45A17.88,17.88,0,0,0,52.7,162.11,17.76,17.76,0,0,0,66,157.28a31.42,31.42,0,0,1,21.63-8.49h0a31.37,31.37,0,0,1,21.62,8.48,17.84,17.84,0,0,0,30.06-14A18,18,0,0,0,121.55,126.45Z"/></g></g></svg>