<svg xmlns="http://www.w3.org/2000/svg" width="115" height="98" fill="none" viewBox="0 0 115 98">
    <g fill="#8C43FF" clip-path="url(#prefix__clip0)">
        <path d="M114.174 10.294v2.47h-.827v78.652c0 2.722-2.224 4.93-4.965 4.93H6.618c-2.733 0-4.966-2.216-4.966-4.93V12.763H.826v-2.469H0v81.122C0 95.048 2.963 98 6.618 98H108.39c3.647 0 6.618-2.952 6.618-6.584V10.294h-.834z"/>
        <path d="M115 13.586H0V6.583C0 2.951 2.963 0 6.618 0H108.39c3.647 0 6.618 2.951 6.618 6.583v7.003H115zM1.653 11.94h111.694V6.583c0-2.722-2.224-4.937-4.965-4.937H6.618c-2.733 0-4.966 2.215-4.966 4.937v5.357zM34.88 42.824h-7.865c-1.828 0-3.305-1.48-3.305-3.292v-7.826c0-1.812 1.485-3.292 3.305-3.292h7.865c1.827 0 3.305 1.48 3.305 3.292v7.826c.008 1.812-1.478 3.292-3.305 3.292zM27.023 30.06c-.914 0-1.653.736-1.653 1.646v7.826c0 .91.739 1.646 1.653 1.646h7.865c.913 0 1.652-.736 1.652-1.646v-7.826c0-.91-.739-1.646-1.652-1.646h-7.865zM34.88 61.347h-7.865c-1.828 0-3.305-1.48-3.305-3.291V50.23c0-1.812 1.485-3.292 3.305-3.292h7.865c1.827 0 3.305 1.48 3.305 3.292v7.826c.008 1.82-1.478 3.291-3.305 3.291zm-7.857-12.763c-.914 0-1.653.736-1.653 1.646v7.826c0 .91.739 1.646 1.653 1.646h7.865c.913 0 1.652-.736 1.652-1.646V50.23c0-.91-.739-1.646-1.652-1.646h-7.865zM34.88 79.88h-7.865c-1.828 0-3.305-1.48-3.305-3.293v-7.825c0-1.812 1.485-3.292 3.305-3.292h7.865c1.827 0 3.305 1.48 3.305 3.292v7.825c.008 1.813-1.478 3.292-3.305 3.292zm-7.857-12.764c-.914 0-1.653.736-1.653 1.646v7.825c0 .91.739 1.646 1.653 1.646h7.865c.913 0 1.652-.736 1.652-1.646v-7.825c0-.91-.739-1.646-1.652-1.646h-7.865zM75.316 75.765c-11.973 0-21.705-9.701-21.705-21.618 0-11.916 9.732-21.625 21.705-21.625 11.973 0 21.705 9.7 21.705 21.617 0 11.917-9.732 21.626-21.705 21.626zm0-41.661c-11.09 0-20.116 8.989-20.116 20.035 0 11.047 9.025 20.043 20.116 20.043 11.09 0 20.116-8.989 20.116-20.035s-9.025-20.043-20.116-20.043z"/>
        <path d="M72.17 48.577l1.192 7.865c.15.894.897 1.63 1.938 1.63.898 0 1.788-.744 1.939-1.63l1.191-7.865c.302-1.931-1.191-3.561-3.13-3.561-1.938 0-3.273 1.63-3.13 3.56zM75.3 63.27c.987 0 1.788-.796 1.788-1.78 0-.983-.8-1.78-1.788-1.78-.987 0-1.787.797-1.787 1.78 0 .984.8 1.78 1.787 1.78zM9.716 8.649c1.027 0 1.86-.83 1.86-1.852 0-1.022-.833-1.851-1.86-1.851-1.026 0-1.859.829-1.859 1.851 0 1.023.833 1.852 1.86 1.852zM15.921 8.649c1.027 0 1.86-.83 1.86-1.852 0-1.022-.833-1.851-1.86-1.851-1.026 0-1.859.829-1.859 1.851 0 1.023.833 1.852 1.86 1.852zM22.134 8.649c1.027 0 1.86-.83 1.86-1.852 0-1.022-.833-1.851-1.86-1.851-1.027 0-1.859.829-1.859 1.851 0 1.023.832 1.852 1.859 1.852z"/>
    </g>
    <defs>
        <clipPath id="prefix__clip0">
            <path fill="#fff" d="M0 0H115V98H0z"/>
        </clipPath>
    </defs>
</svg>
