<svg width="650" height="265" viewBox="0 0 650 265" fill="none" xmlns="http://www.w3.org/2000/svg">
<path d="M126.795 162.049V40.8628C126.795 37.4576 129.599 34.6533 133.005 34.6533H179.676V32.55H133.005C128.398 32.55 124.692 36.2557 124.692 40.8628V162.049H126.795Z" fill="white"/>
<path d="M319.792 220.94H152.635V223.043H319.792V220.94Z" fill="white"/>
<path d="M393.706 40.8628V122.188H395.809V40.8628C395.809 36.2557 392.103 32.55 387.496 32.55H300.663V34.6533H387.496C390.901 34.6533 393.706 37.4576 393.706 40.8628Z" fill="white"/>
<path d="M377.08 52.8815V122.288H379.183V52.8815C379.183 50.578 377.28 48.675 374.976 48.675H300.662V50.7783H374.976C376.078 50.7783 377.08 51.7798 377.08 52.8815Z" fill="white"/>
<path d="M143.621 162.049V52.8815C143.621 51.7798 144.522 50.7783 145.724 50.7783H180.177V48.675H145.724C143.421 48.675 141.518 50.578 141.518 52.8815V162.049H143.621Z" fill="white"/>
<path d="M320.192 184.484H153.035V186.587H320.192V184.484Z" fill="white"/>
<path d="M283.636 256.695H237.666L240.47 221.04H280.932L283.636 256.695ZM239.869 254.592H281.333L278.929 223.043H242.373L239.869 254.592Z" fill="white"/>
<path d="M298.258 264.206H222.943C222.242 264.206 221.641 263.605 221.641 262.904V259.399C221.641 256.695 223.844 254.592 226.448 254.592H294.753C297.457 254.592 299.561 256.795 299.561 259.399V262.904C299.561 263.605 299.06 264.206 298.258 264.206ZM223.744 262.103H297.557V259.399C297.557 257.897 296.356 256.695 294.853 256.695H226.548C225.046 256.695 223.844 257.897 223.844 259.399V262.103H223.744Z" fill="white"/>
<path d="M260.601 211.024C257.396 211.024 254.691 208.42 254.691 205.115C254.691 201.81 257.295 199.206 260.601 199.206C263.906 199.206 266.51 201.81 266.51 205.115C266.51 208.42 263.805 211.024 260.601 211.024ZM260.601 201.41C258.497 201.41 256.795 203.112 256.795 205.216C256.795 207.319 258.497 209.021 260.601 209.021C262.704 209.021 264.406 207.319 264.406 205.216C264.406 203.112 262.704 201.41 260.601 201.41Z" fill="white"/>
<path d="M146.826 161.048H113.775C113.975 161.749 114.076 162.45 114.276 163.151H146.926C149.831 163.151 152.134 165.455 152.134 168.359V256.995C152.134 259.9 149.831 262.203 146.926 262.203H107.766C104.861 262.203 102.558 259.9 102.558 256.995V200.208C101.857 200.809 101.156 201.51 100.455 202.111V257.096C100.455 261.102 103.76 264.407 107.766 264.407H146.926C150.932 264.407 154.237 261.102 154.237 257.096V168.459C154.137 164.353 150.832 161.048 146.826 161.048Z" fill="white"/>
<path d="M114.977 172.265C114.977 172.966 114.877 173.667 114.877 174.368H152.034V247.18H102.458V200.208C101.757 200.809 101.056 201.51 100.354 202.111V249.384H154.037V172.265H114.977Z" fill="white"/>
<path fill-rule="evenodd" clip-rule="evenodd" d="M116.079 166.556H138.814C139.415 166.556 139.815 167.057 139.815 167.558C139.815 168.159 139.315 168.559 138.814 168.559H116.079C115.478 168.559 115.077 168.059 115.077 167.558C114.977 166.957 115.478 166.556 116.079 166.556Z" fill="white"/>
<path fill-rule="evenodd" clip-rule="evenodd" d="M127.396 252.489C128.999 252.489 130.401 253.791 130.401 255.493C130.401 257.096 129.099 258.498 127.396 258.498C125.794 258.498 124.392 257.196 124.392 255.493C124.392 253.791 125.694 252.489 127.396 252.489Z" fill="white"/>
<path d="M116.078 215.531C113.374 215.531 111.171 213.328 111.171 210.624C111.171 207.92 113.374 205.716 116.078 205.716C118.783 205.716 120.986 207.92 120.986 210.624C120.986 213.328 118.783 215.531 116.078 215.531ZM116.078 207.719C114.476 207.719 113.174 209.021 113.174 210.624C113.174 212.226 114.476 213.528 116.078 213.528C117.681 213.528 118.983 212.226 118.983 210.624C118.983 209.021 117.581 207.719 116.078 207.719Z" fill="white"/>
<path fill-rule="evenodd" clip-rule="evenodd" d="M126.194 203.813H142.319C142.92 203.813 143.32 204.314 143.32 204.815C143.32 205.416 142.82 205.817 142.319 205.817H126.194C125.593 205.817 125.192 205.316 125.192 204.815C125.192 204.214 125.593 203.813 126.194 203.813Z" fill="white"/>
<path fill-rule="evenodd" clip-rule="evenodd" d="M126.194 209.522H137.111C137.712 209.522 138.112 210.023 138.112 210.524C138.112 211.125 137.611 211.525 137.111 211.525H126.194C125.593 211.525 125.192 211.025 125.192 210.524C125.192 209.923 125.593 209.522 126.194 209.522Z" fill="white"/>
<path fill-rule="evenodd" clip-rule="evenodd" d="M126.194 215.231H131.903C132.504 215.231 132.904 215.732 132.904 216.232C132.904 216.833 132.403 217.234 131.903 217.234H126.194C125.593 217.234 125.192 216.733 125.192 216.232C125.192 215.732 125.593 215.231 126.194 215.231Z" fill="white"/>
<path d="M74.9152 212.126C52.2804 212.126 33.8521 193.698 33.8521 171.063C33.8521 148.428 52.2804 130 74.9152 130C97.5501 130 115.978 148.428 115.978 171.063C115.978 193.698 97.6502 212.126 74.9152 212.126ZM74.9152 132.103C53.3821 132.103 35.9553 149.53 35.9553 171.063C35.9553 192.596 53.4823 210.023 74.9152 210.023C96.4484 210.023 113.875 192.596 113.875 171.063C113.875 149.53 96.4484 132.103 74.9152 132.103Z" fill="white"/>
<path d="M512.088 204.815V245.978C512.088 248.883 509.784 251.186 506.88 251.186H326.402C323.498 251.186 321.194 248.883 321.194 245.978V128.999C321.194 126.094 323.498 123.79 326.402 123.79H415.539V121.687H326.402C322.396 121.687 319.091 124.992 319.091 128.999V245.978C319.091 249.985 322.396 253.29 326.402 253.29H506.88C510.886 253.29 514.191 249.985 514.191 245.978V204.815H512.088Z" fill="white"/>
<path d="M521.002 264.207H312.381C308.775 264.207 305.871 261.302 305.871 257.697V252.489C305.871 251.787 306.472 251.187 307.173 251.187H526.21C526.911 251.187 527.512 251.787 527.512 252.489V257.697C527.512 261.302 524.607 264.207 521.002 264.207ZM307.974 253.29V257.697C307.974 260.1 309.977 262.103 312.381 262.103H521.002C523.405 262.103 525.408 260.1 525.408 257.697V253.29H307.974Z" fill="white"/>
<path d="M423.552 258.598H409.43C405.624 258.598 402.219 256.194 400.917 252.689L400.416 251.287H432.666L432.165 252.689C430.763 256.294 427.357 258.598 423.552 258.598ZM403.621 253.39C404.923 255.293 407.126 256.495 409.43 256.495H423.552C425.955 256.495 428.159 255.293 429.361 253.39H403.621Z" fill="white"/>
<path d="M503.374 204.815V238.166C503.374 238.767 502.874 239.168 502.373 239.168H330.909C330.308 239.168 329.907 238.667 329.907 238.166V137.111C329.907 136.51 330.408 136.109 330.909 136.109H415.639V134.006H330.909C329.206 134.006 327.804 135.408 327.804 137.111V238.166C327.804 239.869 329.206 241.271 330.909 241.271H502.373C504.075 241.271 505.478 239.869 505.478 238.166V204.815H503.374Z" fill="white"/>
<path d="M293.351 0H187.489C182.881 0 179.176 3.7057 179.176 8.31279V13.02V17.2265V129.499C179.176 134.106 182.881 137.812 187.489 137.812H293.351C297.959 137.812 301.664 134.106 301.664 129.499V17.2265V13.02V8.31279C301.664 3.7057 297.959 0 293.351 0ZM181.179 8.31279C181.179 4.90755 183.983 2.10324 187.489 2.10324H293.351C296.757 2.10324 299.661 4.90755 299.661 8.31279V15.1233H181.179V8.31279ZM299.561 129.499C299.561 132.904 296.757 135.709 293.251 135.709H187.489C184.083 135.709 181.179 132.904 181.179 129.499V17.2265H299.561V129.499Z" fill="white"/>
<path d="M191.394 10.9169C192.667 10.9169 193.698 9.88557 193.698 8.61336C193.698 7.34115 192.667 6.30981 191.394 6.30981C190.122 6.30981 189.091 7.34115 189.091 8.61336C189.091 9.88557 190.122 10.9169 191.394 10.9169Z" fill="white"/>
<path d="M199.206 10.9169C200.479 10.9169 201.51 9.88557 201.51 8.61336C201.51 7.34115 200.479 6.30981 199.206 6.30981C197.934 6.30981 196.903 7.34115 196.903 8.61336C196.903 9.88557 197.934 10.9169 199.206 10.9169Z" fill="white"/>
<path d="M207.018 10.9169C208.291 10.9169 209.322 9.88557 209.322 8.61336C209.322 7.34115 208.291 6.30981 207.018 6.30981C205.746 6.30981 204.715 7.34115 204.715 8.61336C204.715 9.88557 205.746 10.9169 207.018 10.9169Z" fill="white"/>
<path fill-rule="evenodd" clip-rule="evenodd" d="M195.801 90.1387H198.405C199.006 90.1387 199.407 90.6394 199.407 91.1402C199.407 91.7411 198.906 92.1418 198.405 92.1418H195.801C195.2 92.1418 194.8 91.641 194.8 91.1402C194.8 90.6394 195.2 90.1387 195.801 90.1387Z" fill="white"/>
<path fill-rule="evenodd" clip-rule="evenodd" d="M195.801 38.0586H198.405C199.006 38.0586 199.407 38.5594 199.407 39.0601C199.407 39.6611 198.906 40.0617 198.405 40.0617H195.801C195.2 40.0617 194.8 39.5609 194.8 39.0601C194.8 38.5594 195.2 38.0586 195.801 38.0586Z" fill="white"/>
<path fill-rule="evenodd" clip-rule="evenodd" d="M203.613 38.0586H210.624C211.225 38.0586 211.625 38.5594 211.625 39.0601C211.625 39.6611 211.124 40.0617 210.624 40.0617H203.613C203.012 40.0617 202.611 39.5609 202.611 39.0601C202.611 38.5594 203.112 38.0586 203.613 38.0586Z" fill="white"/>
<path fill-rule="evenodd" clip-rule="evenodd" d="M215.331 38.0586H222.342C222.943 38.0586 223.343 38.5594 223.343 39.0601C223.343 39.6611 222.843 40.0617 222.342 40.0617H215.331C214.73 40.0617 214.33 39.5609 214.33 39.0601C214.33 38.5594 214.83 38.0586 215.331 38.0586Z" fill="white"/>
<path fill-rule="evenodd" clip-rule="evenodd" d="M227.149 38.0586H240.169C240.77 38.0586 241.171 38.5594 241.171 39.0601C241.171 39.6611 240.67 40.0617 240.169 40.0617H227.149C226.548 40.0617 226.148 39.5609 226.148 39.0601C226.047 38.5594 226.548 38.0586 227.149 38.0586Z" fill="white"/>
<path fill-rule="evenodd" clip-rule="evenodd" d="M244.877 38.0586H264.206C264.807 38.0586 265.208 38.5594 265.208 39.0601C265.208 39.6611 264.707 40.0617 264.206 40.0617H244.877C244.276 40.0617 243.875 39.5609 243.875 39.0601C243.775 38.5594 244.276 38.0586 244.877 38.0586Z" fill="white"/>
<path fill-rule="evenodd" clip-rule="evenodd" d="M195.801 48.4744H198.405C199.006 48.4744 199.407 48.9751 199.407 49.4759C199.407 50.0768 198.906 50.4774 198.405 50.4774H195.801C195.2 50.4774 194.8 49.9767 194.8 49.4759C194.8 48.9751 195.2 48.4744 195.801 48.4744Z" fill="white"/>
<path fill-rule="evenodd" clip-rule="evenodd" d="M195.801 58.8906H198.405C199.006 58.8906 199.407 59.3914 199.407 59.8922C199.407 60.4931 198.906 60.8937 198.405 60.8937H195.801C195.2 60.8937 194.8 60.3929 194.8 59.8922C194.8 59.3914 195.2 58.8906 195.801 58.8906Z" fill="white"/>
<path fill-rule="evenodd" clip-rule="evenodd" d="M195.801 69.3066H198.405C199.006 69.3066 199.407 69.8074 199.407 70.3082C199.407 70.9091 198.906 71.3097 198.405 71.3097H195.801C195.2 71.3097 194.8 70.809 194.8 70.3082C194.8 69.8074 195.2 69.3066 195.801 69.3066Z" fill="white"/>
<path fill-rule="evenodd" clip-rule="evenodd" d="M195.801 79.7227H198.405C199.006 79.7227 199.407 80.2234 199.407 80.7242C199.407 81.3251 198.906 81.7257 198.405 81.7257H195.801C195.2 81.7257 194.8 81.225 194.8 80.7242C194.8 80.2234 195.2 79.7227 195.801 79.7227Z" fill="white"/>
<path fill-rule="evenodd" clip-rule="evenodd" d="M195.801 100.555H198.405C199.006 100.555 199.407 101.055 199.407 101.556C199.407 102.157 198.906 102.558 198.405 102.558H195.801C195.2 102.558 194.8 102.057 194.8 101.556C194.8 101.055 195.2 100.555 195.801 100.555Z" fill="white"/>
<path fill-rule="evenodd" clip-rule="evenodd" d="M195.801 110.971H198.405C199.006 110.971 199.407 111.471 199.407 111.972C199.407 112.573 198.906 112.974 198.405 112.974H195.801C195.2 112.974 194.8 112.473 194.8 111.972C194.8 111.471 195.2 110.971 195.801 110.971Z" fill="white"/>
<path fill-rule="evenodd" clip-rule="evenodd" d="M203.613 48.4744H219.738C220.339 48.4744 220.739 48.9751 220.739 49.4759C220.739 50.0768 220.238 50.4774 219.738 50.4774H203.613C203.012 50.4774 202.611 49.9767 202.611 49.4759C202.611 48.9751 203.112 48.4744 203.613 48.4744Z" fill="white"/>
<path fill-rule="evenodd" clip-rule="evenodd" d="M224.545 48.4744H253.79C254.391 48.4744 254.792 48.9751 254.792 49.4759C254.792 50.0768 254.291 50.4774 253.79 50.4774H224.545C223.944 50.4774 223.544 49.9767 223.544 49.4759C223.443 48.9751 223.944 48.4744 224.545 48.4744Z" fill="white"/>
<path fill-rule="evenodd" clip-rule="evenodd" d="M258.398 48.4744H269.314C269.915 48.4744 270.316 48.9751 270.316 49.4759C270.316 50.0768 269.815 50.4774 269.314 50.4774H258.398C257.797 50.4774 257.396 49.9767 257.396 49.4759C257.396 48.9751 257.797 48.4744 258.398 48.4744Z" fill="white"/>
<path fill-rule="evenodd" clip-rule="evenodd" d="M203.613 58.8906H214.53C215.131 58.8906 215.531 59.3914 215.531 59.8922C215.531 60.4931 215.03 60.8937 214.53 60.8937H203.613C203.012 60.8937 202.611 60.3929 202.611 59.8922C202.611 59.3914 203.112 58.8906 203.613 58.8906Z" fill="white"/>
<path fill-rule="evenodd" clip-rule="evenodd" d="M219.237 58.8906H230.154C230.755 58.8906 231.156 59.3914 231.156 59.8922C231.156 60.4931 230.655 60.8937 230.154 60.8937H219.237C218.636 60.8937 218.236 60.3929 218.236 59.8922C218.236 59.3914 218.737 58.8906 219.237 58.8906Z" fill="white"/>
<path fill-rule="evenodd" clip-rule="evenodd" d="M234.962 58.8906H240.67C241.271 58.8906 241.672 59.3914 241.672 59.8922C241.672 60.4931 241.171 60.8937 240.67 60.8937H234.962C234.361 60.8937 233.96 60.3929 233.96 59.8922C233.86 59.3914 234.361 58.8906 234.962 58.8906Z" fill="white"/>
<path fill-rule="evenodd" clip-rule="evenodd" d="M203.613 69.3066H227.65C228.251 69.3066 228.651 69.8074 228.651 70.3082C228.651 70.9091 228.151 71.3097 227.65 71.3097H203.613C203.012 71.3097 202.611 70.809 202.611 70.3082C202.611 69.8074 203.112 69.3066 203.613 69.3066Z" fill="white"/>
<path fill-rule="evenodd" clip-rule="evenodd" d="M232.358 69.3066H248.482C249.083 69.3066 249.484 69.8074 249.484 70.3082C249.484 70.9091 248.983 71.3097 248.482 71.3097H232.358C231.757 71.3097 231.356 70.809 231.356 70.3082C231.256 69.8074 231.757 69.3066 232.358 69.3066Z" fill="white"/>
<path fill-rule="evenodd" clip-rule="evenodd" d="M203.613 79.7227H227.65C228.251 79.7227 228.651 80.2234 228.651 80.7242C228.651 81.3251 228.151 81.7257 227.65 81.7257H203.613C203.012 81.7257 202.611 81.225 202.611 80.7242C202.611 80.2234 203.112 79.7227 203.613 79.7227Z" fill="white"/>
<path fill-rule="evenodd" clip-rule="evenodd" d="M232.358 79.7227H264.207C264.808 79.7227 265.208 80.2234 265.208 80.7242C265.208 81.3251 264.707 81.7257 264.207 81.7257H232.358C231.757 81.7257 231.356 81.225 231.356 80.7242C231.256 80.2234 231.757 79.7227 232.358 79.7227Z" fill="white"/>
<path fill-rule="evenodd" clip-rule="evenodd" d="M203.613 90.1387H219.738C220.339 90.1387 220.739 90.6394 220.739 91.1402C220.739 91.7411 220.238 92.1418 219.738 92.1418H203.613C203.012 92.1418 202.611 91.641 202.611 91.1402C202.611 90.6394 203.112 90.1387 203.613 90.1387Z" fill="white"/>
<path fill-rule="evenodd" clip-rule="evenodd" d="M224.545 90.1387H240.67C241.271 90.1387 241.671 90.6394 241.671 91.1402C241.671 91.7411 241.171 92.1418 240.67 92.1418H224.545C223.944 92.1418 223.544 91.641 223.544 91.1402C223.443 90.6394 223.944 90.1387 224.545 90.1387Z" fill="white"/>
<path fill-rule="evenodd" clip-rule="evenodd" d="M245.378 90.1387H253.69C254.291 90.1387 254.692 90.6394 254.692 91.1402C254.692 91.7411 254.191 92.1418 253.69 92.1418H245.378C244.777 92.1418 244.376 91.641 244.376 91.1402C244.276 90.6394 244.777 90.1387 245.378 90.1387Z" fill="white"/>
<path fill-rule="evenodd" clip-rule="evenodd" d="M203.613 100.555H235.462C236.063 100.555 236.463 101.055 236.463 101.556C236.463 102.157 235.963 102.558 235.462 102.558H203.613C203.012 102.558 202.611 102.057 202.611 101.556C202.611 101.055 203.112 100.555 203.613 100.555Z" fill="white"/>
<path fill-rule="evenodd" clip-rule="evenodd" d="M203.613 110.971H217.134C217.735 110.971 218.135 111.471 218.135 111.972C218.135 112.573 217.634 112.974 217.134 112.974H203.613C203.012 112.974 202.611 112.473 202.611 111.972C202.611 111.471 203.112 110.971 203.613 110.971Z" fill="white"/>
<path d="M558.56 94.8459V97.9507H557.558V197.504C557.558 200.909 554.754 203.713 551.348 203.713H422.951C419.546 203.713 416.741 200.909 416.741 197.504V97.9507H415.74V94.8459H414.738V197.504C414.738 202.111 418.444 205.817 423.051 205.817H551.348C555.956 205.817 559.661 202.111 559.661 197.504V94.8459H558.56Z" fill="white"/>
<path d="M559.561 99.0524H414.638V90.1387C414.638 85.5316 418.343 81.8259 422.95 81.8259H551.248C555.855 81.8259 559.561 85.5316 559.561 90.1387V99.0524ZM416.641 96.9492H557.457V90.1387C557.457 86.7335 554.653 83.9292 551.248 83.9292H422.95C419.545 83.9292 416.741 86.7335 416.741 90.1387V96.9492H416.641Z" fill="white"/>
<path d="M426.857 92.7426C428.129 92.7426 429.16 91.7113 429.16 90.439C429.16 89.1668 428.129 88.1355 426.857 88.1355C425.585 88.1355 424.553 89.1668 424.553 90.439C424.553 91.7113 425.585 92.7426 426.857 92.7426Z" fill="white"/>
<path d="M434.669 92.7426C435.941 92.7426 436.972 91.7113 436.972 90.439C436.972 89.1668 435.941 88.1355 434.669 88.1355C433.397 88.1355 432.365 89.1668 432.365 90.439C432.365 91.7113 433.397 92.7426 434.669 92.7426Z" fill="white"/>
<path d="M442.481 92.7426C443.753 92.7426 444.784 91.7113 444.784 90.439C444.784 89.1668 443.753 88.1355 442.481 88.1355C441.209 88.1355 440.177 89.1668 440.177 90.439C440.177 91.7113 441.209 92.7426 442.481 92.7426Z" fill="white"/>
<path d="M501.171 125.693V123.29C488.451 124.592 478.236 134.808 476.934 147.527H479.337C480.639 136.009 489.753 126.995 501.171 125.693Z" fill="white"/>
<path d="M500.87 175.069C489.753 173.667 480.84 164.854 479.337 153.837H476.934C478.436 166.256 488.351 176.071 500.87 177.473V175.069Z" fill="white"/>
<path d="M528.713 153.737C527.211 164.854 518.297 173.567 507.18 174.969V177.373C519.599 175.971 529.515 166.156 531.117 153.737H528.713Z" fill="white"/>
<path d="M528.713 147.527H531.117C529.815 135.008 519.9 124.892 507.38 123.39V125.794C518.598 127.196 527.411 136.21 528.713 147.527Z" fill="white"/>
<path d="M508.482 128.498H500.169V120.185H508.482V128.498ZM502.173 126.394H506.379V122.188H502.173V126.394Z" fill="white"/>
<path d="M508.182 180.578H499.869V172.265H508.182V180.578ZM501.972 178.475H506.179V174.268H501.972V178.475Z" fill="white"/>
<path d="M482.142 154.738H473.729V146.425H482.042V154.738H482.142ZM475.832 152.735H480.039V148.529H475.832V152.735Z" fill="white"/>
<path d="M534.021 154.738H525.708V146.425H534.021V154.738ZM527.712 152.735H531.918V148.529H527.712V152.735Z" fill="white"/>
<path d="M531.117 125.894H529.014V147.527H531.117V125.894Z" fill="white"/>
<path d="M531.117 153.236H529.014V174.869H531.117V153.236Z" fill="white"/>
<path d="M530.115 129.199C531.83 129.199 533.22 127.809 533.22 126.094C533.22 124.379 531.83 122.989 530.115 122.989C528.401 122.989 527.011 124.379 527.011 126.094C527.011 127.809 528.401 129.199 530.115 129.199Z" fill="white"/>
<path d="M530.115 178.775C531.83 178.775 533.22 177.385 533.22 175.67C533.22 173.955 531.83 172.565 530.115 172.565C528.401 172.565 527.011 173.955 527.011 175.67C527.011 177.385 528.401 178.775 530.115 178.775Z" fill="white"/>
<path d="M454.262 136.029H444.347C442.044 136.029 440.141 134.126 440.141 131.822V121.907C440.141 119.603 442.044 117.7 444.347 117.7H454.262C456.566 117.7 458.469 119.603 458.469 121.907V131.822C458.369 134.126 456.566 136.029 454.262 136.029ZM444.347 119.904C443.145 119.904 442.244 120.805 442.244 121.907V131.822C442.244 132.924 443.145 133.925 444.347 133.925H454.262C455.364 133.925 456.366 133.024 456.366 131.822V121.907C456.366 120.805 455.464 119.804 454.262 119.804H444.347V119.904Z" fill="white"/>
<path d="M454.262 159.464H444.347C442.044 159.464 440.141 157.562 440.141 155.258V145.343C440.141 143.039 442.044 141.136 444.347 141.136H454.262C456.566 141.136 458.469 143.039 458.469 145.343V155.258C458.369 157.562 456.566 159.464 454.262 159.464ZM444.347 143.34C443.245 143.34 442.244 144.241 442.244 145.443V155.358C442.244 156.46 443.145 157.461 444.347 157.461H454.262C455.364 157.461 456.366 156.56 456.366 155.358V145.443C456.366 144.341 455.464 143.34 454.262 143.34H444.347Z" fill="white"/>
<path d="M454.262 182.901H444.347C442.044 182.901 440.141 181.098 440.141 178.794V168.879C440.141 166.576 442.044 164.673 444.347 164.673H454.262C456.566 164.673 458.469 166.576 458.469 168.879V178.794C458.369 181.098 456.566 182.901 454.262 182.901ZM444.347 166.776C443.245 166.776 442.244 167.677 442.244 168.879V178.794C442.244 179.896 443.145 180.797 444.347 180.797H454.262C455.364 180.797 456.366 179.896 456.366 178.694V168.779C456.366 167.677 455.464 166.676 454.262 166.676H444.347V166.776Z" fill="white"/>
<path d="M634.876 221.841V223.945C642.188 224.746 647.896 230.955 647.896 238.467C647.896 245.978 642.188 252.188 634.876 252.989V255.092C643.39 254.291 650 247.18 650 238.467C650 229.753 643.39 222.643 634.876 221.841Z" fill="white"/>
<path d="M634.876 228.351V230.455C638.582 231.156 641.386 234.461 641.386 238.367C641.386 242.273 638.582 245.578 634.876 246.279V248.382C639.784 247.681 643.49 243.475 643.49 238.367C643.49 233.259 639.784 229.153 634.876 228.351Z" fill="white"/>
<path d="M608.536 213.428C609.137 211.726 610.639 210.524 612.442 210.524C614.245 210.524 615.847 211.726 616.348 213.428H618.551C617.95 210.624 615.447 208.521 612.442 208.521C609.437 208.521 606.933 210.624 606.333 213.428H608.536Z" fill="white"/>
<path d="M629.669 264.507H593.713C590.308 264.507 587.504 261.703 587.504 258.298V214.53C587.504 213.429 588.405 212.427 589.607 212.427H633.875C634.977 212.427 635.979 213.328 635.979 214.53V258.298C635.979 261.703 633.174 264.507 629.669 264.507ZM589.507 214.43V258.197C589.507 260.501 591.41 262.404 593.713 262.404H629.669C631.972 262.404 633.875 260.501 633.875 258.197V214.43H589.507Z" fill="white"/>
<path d="M621.056 245.177H613.745C611.441 245.177 609.538 243.274 609.538 240.971V230.555C609.538 228.251 611.441 226.348 613.745 226.348H621.056C623.359 226.348 625.262 228.251 625.262 230.555V240.971C625.262 243.374 623.359 245.177 621.056 245.177ZM613.845 228.552C612.743 228.552 611.741 229.453 611.741 230.655V241.071C611.741 242.172 612.643 243.174 613.845 243.174H621.156C622.258 243.174 623.259 242.273 623.259 241.071V230.655C623.259 229.553 622.358 228.552 621.156 228.552H613.845Z" fill="white"/>
<path d="M618.351 212.727H616.248V226.648H618.351V212.727Z" fill="white"/>
<path d="M575.485 264.207H542.134V263.205C542.134 253.991 549.645 246.479 558.86 246.479C568.074 246.479 575.585 253.991 575.585 263.205V264.207H575.485ZM544.237 262.103H573.382C572.881 254.592 566.471 248.582 558.86 248.582C551.048 248.582 544.738 254.592 544.237 262.103Z" fill="white"/>
<path fill-rule="evenodd" clip-rule="evenodd" d="M558.759 246.98C559.36 246.98 559.761 247.481 559.761 247.982V249.284C559.761 249.884 559.26 250.285 558.759 250.285C558.158 250.285 557.758 249.784 557.758 249.284V247.982C557.758 247.481 558.158 246.98 558.759 246.98Z" fill="white"/>
<path d="M79.5223 264.206H16.4253C7.4114 264.206 0 256.795 0 247.781C0 238.767 7.4114 231.356 16.4253 231.356H79.5223C80.9245 231.356 82.1264 232.558 82.1264 233.96V236.364C82.1264 237.966 80.8243 239.368 79.2219 239.468C72.6117 239.969 69.2065 242.673 69.2065 247.781C69.2065 252.889 72.6117 255.593 79.2219 256.094C80.8243 256.194 82.1264 257.596 82.1264 259.199V261.603C82.1264 263.105 80.9245 264.206 79.5223 264.206ZM16.4253 233.459C8.5131 233.459 2.10324 239.869 2.10324 247.781C2.10324 255.693 8.5131 262.103 16.4253 262.103H79.5223C79.8228 262.103 80.0231 261.903 80.0231 261.603V259.199C80.0231 258.698 79.6225 258.197 79.0216 258.197C69.1063 257.496 67.1032 252.188 67.1032 247.881C67.1032 243.575 69.2065 238.267 79.0216 237.566C79.5223 237.566 80.0231 237.065 80.0231 236.564V234.16C80.0231 233.86 79.8228 233.66 79.5223 233.66H16.4253V233.459Z" fill="white"/>
<path d="M79.8231 259.299H16.1251C9.81543 259.299 4.60742 254.191 4.60742 247.881C4.60742 241.572 9.81543 236.364 16.1251 236.364H79.8231C80.6244 236.364 81.3254 237.065 81.3254 237.866H79.2222C79.2222 238.166 79.5227 238.467 79.8231 238.467H16.1251C10.9171 238.467 6.71066 242.673 6.71066 247.881C6.71066 253.089 10.9171 257.296 16.1251 257.296H79.8231C79.5227 257.296 79.2222 257.596 79.2222 257.897H81.3254C81.3254 258.598 80.7245 259.299 79.8231 259.299Z" fill="white"/>
<path fill-rule="evenodd" clip-rule="evenodd" d="M15.1231 243.375H67.8042C68.4051 243.375 68.8057 243.875 68.8057 244.376C68.8057 244.977 68.3049 245.378 67.8042 245.378H15.1231C14.5222 245.378 14.1216 244.877 14.1216 244.376C14.1216 243.875 14.5222 243.375 15.1231 243.375Z" fill="white"/>
<path fill-rule="evenodd" clip-rule="evenodd" d="M15.1231 249.885H67.8042C68.4051 249.885 68.8057 250.385 68.8057 250.886C68.8057 251.487 68.3049 251.888 67.8042 251.888H15.1231C14.5222 251.888 14.1216 251.387 14.1216 250.886C14.1216 250.385 14.5222 249.885 15.1231 249.885Z" fill="white"/>
<path d="M65.1999 180.378C63.8979 179.276 62.5959 178.074 61.394 176.972C59.391 175.17 57.2877 173.367 55.2846 171.564C54.7839 171.163 54.3832 170.763 53.8825 170.362C53.8825 170.863 53.8825 171.464 53.8825 171.965C55.1845 170.863 56.4865 169.661 57.6883 168.559C59.6914 166.757 61.7947 164.954 63.7977 163.151C64.2985 162.751 64.6991 162.35 65.1999 161.949C65.7007 161.549 65.6005 160.747 65.1999 160.347C64.6991 159.946 63.998 159.946 63.4973 160.347C62.1953 161.449 60.8933 162.65 59.6914 163.752C57.6883 165.555 55.5851 167.358 53.582 169.16C53.0812 169.561 52.6806 169.962 52.1799 170.362C51.7792 170.763 51.7792 171.564 52.1799 171.965C53.4819 173.066 54.7839 174.268 55.9857 175.37C57.9888 177.173 60.092 178.976 62.0951 180.778C62.5959 181.179 62.9965 181.58 63.4973 181.98C63.998 182.381 64.6991 182.481 65.1999 181.98C65.6005 181.58 65.7007 180.878 65.1999 180.378Z" fill="white"/>
<path d="M84.7302 161.849C86.0322 162.951 87.3342 164.153 88.536 165.254C90.5391 167.057 92.6423 168.86 94.6454 170.663C95.1462 171.063 95.5468 171.464 96.0476 171.864C96.0476 171.364 96.0476 170.763 96.0476 170.262C94.7456 171.364 93.4436 172.565 92.2417 173.667C90.2386 175.47 88.1354 177.273 86.1323 179.075C85.6316 179.476 85.2309 179.877 84.7302 180.277C84.2294 180.678 84.3296 181.479 84.7302 181.88C85.2309 182.28 85.932 182.28 86.4328 181.88C87.7348 180.778 89.0368 179.576 90.2386 178.475C92.2417 176.672 94.345 174.869 96.348 173.066C96.8488 172.666 97.2494 172.265 97.7502 171.864C98.1508 171.464 98.1508 170.663 97.7502 170.262C96.4482 169.16 95.1462 167.958 93.9444 166.857C91.9413 165.054 89.838 163.251 87.8349 161.448C87.3342 161.048 86.9336 160.647 86.4328 160.247C85.932 159.846 85.2309 159.746 84.7302 160.247C84.3296 160.647 84.2294 161.448 84.7302 161.849Z" fill="white"/>
<path d="M70.8087 187.288C71.2093 186.287 71.5098 185.185 71.8103 184.183C72.6115 181.68 73.5129 179.176 74.3141 176.672C75.3156 173.667 76.3172 170.663 77.3187 167.558C78.2201 164.954 79.0214 162.35 79.9227 159.746C80.3234 158.444 80.8241 157.242 81.2247 155.94C81.2247 155.94 81.2247 155.94 81.2247 155.84C81.4251 155.239 81.0244 154.538 80.4235 154.438C79.8226 154.338 79.2217 154.638 79.0214 155.239C78.6207 156.24 78.3203 157.342 78.0198 158.344C77.2186 160.848 76.3172 163.351 75.516 165.855C74.5144 168.86 73.5129 171.864 72.5113 174.969C71.61 177.573 70.8087 180.177 69.9073 182.781C69.5067 184.083 69.0059 185.285 68.6053 186.587C68.6053 186.587 68.6053 186.587 68.6053 186.687C68.405 187.288 68.8056 187.989 69.4066 188.089C70.0075 188.19 70.6084 187.889 70.8087 187.288Z" fill="white"/>
</svg>
