<svg xmlns="http://www.w3.org/2000/svg" viewBox="0 0 250 250"><g data-name="Layer 2"><g data-name="2. SÍMBOLO"><path d="M101.45 212.19l-8.91 8.91a9 9 0 1 1-12.73-12.72l8.91-8.92a9 9 0 1 1 12.73 12.73m-57.28-6.36a9 9 0 0 0-12.73 0l-8.91 8.91a9 9 0 1 0 12.73 12.73l8.91-8.91a9 9 0 0 0 0-12.73m111-47.41c.33-.31.66-.64 1-1a45 45 0 0 0-63.63-63.61c-.59.6-1.17 1.21-1.72 1.83a9.28 9.28 0 0 0-.82.71l-48.38 48.38a9 9 0 0 0 12.73 12.73l20.37-20.37a9 9 0 0 1 12.73 0 9 9 0 0 1 0 12.73l-.63.64-36.28 36.28a9 9 0 1 0 12.72 12.72l36.92-36.91a9 9 0 0 1 12.73 12.73l-5.09 5.09a9 9 0 1 0 12.73 12.73l34.37-34.37c.1-.1.18-.21.28-.31" fill="#ee3e25"/><path d="M213.38 36.62A125 125 0 0 0 4.24 157.36L80.62 81l.17-.16a62.5 62.5 0 1 1 88.4 88.39l-.18.17-76.37 76.36A125 125 0 0 0 213.38 36.62" fill="#26265e"/></g></g></svg>