<svg width="18" height="14" viewBox="0 0 18 14" fill="none" xmlns="http://www.w3.org/2000/svg">
<path d="M14.625 13.5C15.5391 13.5 16.3477 13.1836 17.0156 12.5156C17.6484 11.8828 18 11.0742 18 10.125V3.375C18 2.46094 17.6484 1.65234 17.0156 0.984375C16.3477 0.351562 15.5391 0 14.625 0H11.6719C11.5312 0 11.4258 0.0703125 11.3555 0.140625C11.2852 0.210938 11.25 0.316406 11.25 0.421875V1.82812C11.25 1.96875 11.2852 2.07422 11.3555 2.14453C11.4258 2.21484 11.5312 2.25 11.6719 2.25H14.625C14.9062 2.25 15.1875 2.39062 15.3984 2.60156C15.6094 2.8125 15.75 3.09375 15.75 3.375V10.125C15.75 10.4414 15.6094 10.7227 15.3984 10.9336C15.1875 11.1445 14.9062 11.25 14.625 11.25H11.6719C11.5312 11.25 11.4258 11.3203 11.3555 11.3906C11.2852 11.4609 11.25 11.5664 11.25 11.6719V13.0781C11.25 13.2188 11.2852 13.3242 11.3555 13.3945C11.4258 13.4648 11.5312 13.5 11.6719 13.5H14.625ZM12.9727 6.43359C13.1133 6.60938 13.2188 6.82031 13.2188 7.03125C13.2188 7.27734 13.1133 7.48828 12.9727 7.62891L7.06641 13.5352C6.89062 13.7109 6.67969 13.7812 6.46875 13.7812C6.22266 13.7812 6.01172 13.7109 5.87109 13.5352C5.69531 13.3945 5.625 13.1836 5.625 12.9375V9.5625H0.84375C0.597656 9.5625 0.386719 9.49219 0.246094 9.31641C0.0703125 9.17578 0 8.96484 0 8.71875V5.34375C0 5.13281 0.0703125 4.92188 0.246094 4.74609C0.386719 4.60547 0.597656 4.5 0.84375 4.5H5.625V1.125C5.625 0.914062 5.69531 0.703125 5.87109 0.527344C6.01172 0.386719 6.22266 0.28125 6.46875 0.28125C6.67969 0.28125 6.89062 0.386719 7.06641 0.527344L12.9727 6.43359Z" fill="#4A4A4A"/>
</svg>
