<?xml version="1.0" encoding="utf-8"?>
<!-- Generator: Adobe Illustrator 24.0.1, SVG Export Plug-In . SVG Version: 6.00 Build 0)  -->
<svg version="1.1" id="Layer_1" xmlns="http://www.w3.org/2000/svg" xmlns:xlink="http://www.w3.org/1999/xlink" x="0px" y="0px"
	 viewBox="0 0 9 9" enable-background="new 0 0 9 9" xml:space="preserve">
<g>
	<path fill="#4A4A4A" d="M3.469,0H0.656C0.294,0,0,0.294,0,0.656v1.688C0,2.706,0.294,3,0.656,3h2.812
		c0.362,0,0.656-0.294,0.656-0.656V0.656C4.125,0.294,3.831,0,3.469,0z"/>
	<path fill="#4A4A4A" d="M3.469,3.75H0.656C0.294,3.75,0,4.044,0,4.406v3.938C0,8.706,0.294,9,0.656,9h2.812
		c0.362,0,0.656-0.294,0.656-0.656V4.406C4.125,4.044,3.831,3.75,3.469,3.75z"/>
	<path fill="#4A4A4A" d="M8.344,6H5.531C5.169,6,4.875,6.294,4.875,6.656v1.688C4.875,8.706,5.169,9,5.531,9h2.812
		C8.706,9,9,8.706,9,8.344V6.656C9,6.294,8.706,6,8.344,6z"/>
	<path fill="#4A4A4A" d="M8.344,0H5.531C5.169,0,4.875,0.294,4.875,0.656v3.938c0,0.362,0.294,0.656,0.656,0.656h2.812
		C8.706,5.25,9,4.956,9,4.594V0.656C9,0.294,8.706,0,8.344,0z"/>
</g>
</svg>
