<svg width="21" height="19" viewBox="0 0 21 19" fill="none" xmlns="http://www.w3.org/2000/svg">
<path d="M14.8828 3.20312C14.7422 3.0625 14.5312 3.0625 14.3906 3.20312L6.72656 10.8672L6.375 14.1367C6.30469 14.5586 6.69141 14.9453 7.11328 14.875L10.3828 14.5234L18.0469 6.85938C18.1875 6.71875 18.1875 6.50781 18.0469 6.36719L14.8828 3.20312ZM20.5781 2.39453L18.8555 0.671875C18.3281 0.144531 17.4492 0.144531 16.9219 0.671875L15.6914 1.90234C15.5508 2.04297 15.5508 2.25391 15.6914 2.39453L18.8555 5.55859C18.9961 5.69922 19.207 5.69922 19.3477 5.55859L20.5781 4.32812C21.1055 3.80078 21.1055 2.92188 20.5781 2.39453ZM14.25 12.4492V16H3V4.75H11.0508C11.1914 4.75 11.2969 4.71484 11.3672 4.64453L12.7734 3.23828C13.0195 2.95703 12.8438 2.5 12.457 2.5H2.4375C1.48828 2.5 0.75 3.27344 0.75 4.1875V16.5625C0.75 17.5117 1.48828 18.25 2.4375 18.25H14.8125C15.7266 18.25 16.5 17.5117 16.5 16.5625V11.043C16.5 10.6562 16.043 10.4805 15.7617 10.7266L14.3555 12.1328C14.2852 12.2031 14.25 12.3086 14.25 12.4492Z" fill="#4A4A4A"/>
</svg>
