<svg width="21" height="17" viewBox="0 0 21 17" fill="none" xmlns="http://www.w3.org/2000/svg">
<path d="M17.9062 10.2539C17.9062 10.1133 17.8359 10.0078 17.7656 9.90234L11.1562 4.48828C11.0508 4.41797 10.9453 4.38281 10.875 4.38281C10.7695 4.38281 10.6641 4.41797 10.5938 4.48828L3.98438 9.90234C3.87891 10.0078 3.84375 10.1133 3.84375 10.2539V15.2812C3.84375 15.5273 3.91406 15.7383 4.08984 15.8789C4.23047 16.0547 4.44141 16.125 4.6875 16.125H8.76562C8.87109 16.125 8.97656 16.0898 9.04688 16.0195C9.11719 15.9492 9.1875 15.8438 9.1875 15.7031V11.7656C9.1875 11.6602 9.22266 11.5547 9.29297 11.4844C9.36328 11.4141 9.46875 11.3438 9.60938 11.3438H12.1406C12.2461 11.3438 12.3516 11.4141 12.4219 11.4844C12.4922 11.5547 12.5625 11.6602 12.5625 11.7656V15.7031C12.5625 15.8438 12.5977 15.9492 12.668 16.0195C12.7383 16.0898 12.8438 16.125 12.9844 16.125H17.0625C17.2734 16.125 17.4844 16.0547 17.6602 15.8789C17.8008 15.7383 17.9062 15.5273 17.9062 15.2812V10.2539ZM20.8594 8.10938C20.9297 8.17969 20.9648 8.28516 20.9648 8.39062C20.9648 8.53125 20.9648 8.63672 20.8945 8.70703L20.0156 9.79688C19.9453 9.90234 19.8398 9.9375 19.7344 9.9375C19.5938 9.9375 19.4883 9.90234 19.418 9.83203L11.1562 3.04688C11.0508 2.97656 10.9453 2.94141 10.875 2.94141C10.7695 2.94141 10.6641 2.97656 10.5938 3.04688L2.33203 9.83203C2.22656 9.90234 2.12109 9.9375 2.01562 9.9375C1.875 9.9375 1.80469 9.90234 1.73438 9.79688L0.855469 8.70703C0.785156 8.63672 0.75 8.53125 0.75 8.39062C0.75 8.28516 0.820312 8.17969 0.890625 8.10938L9.82031 0.761719C10.1016 0.515625 10.4531 0.375 10.875 0.375C11.2617 0.375 11.6133 0.515625 11.9648 0.761719L15.0938 3.36328V0.796875C15.0938 0.691406 15.1289 0.585938 15.1992 0.515625C15.2695 0.445312 15.375 0.375 15.5156 0.375H17.4844C17.5898 0.375 17.6953 0.445312 17.7656 0.515625C17.8359 0.585938 17.9062 0.691406 17.9062 0.796875V5.68359L20.8594 8.10938Z" fill="#4A4A4A"/>
</svg>
