<?xml version="1.0" encoding="UTF-8"?>
<svg width="320px" height="373px" viewBox="0 0 320 373" version="1.1" xmlns="http://www.w3.org/2000/svg" xmlns:xlink="http://www.w3.org/1999/xlink">
    <!-- Generator: Sketch 51.1 (57501) - http://www.bohemiancoding.com/sketch -->
    <title>Group</title>
    <desc>Created with Sketch.</desc>
    <defs></defs>
    <g id="Page-1" stroke="none" stroke-width="1" fill="none" fill-rule="evenodd">
        <g id="Group" fill-rule="nonzero">
            <path d="M258.093376,162.75428 C248.844464,172.779597 235.782077,178.423642 222.138996,178.289583 L218.974717,178.289583 C205.667864,178.178683 192.946351,172.805787 183.592071,163.34582 C177.478506,157.26347 169.192354,153.866215 160.566419,153.90549 C142.551937,153.934044 127.971474,168.553388 128.000042,186.558709 C128.02861,204.56403 142.655391,219.13708 160.669872,219.108527 C169.247994,219.120374 177.481349,215.734613 183.567396,209.692495 C192.929907,200.226664 205.658001,194.845869 218.974717,194.724069 L221.959506,194.724069 C235.647546,194.554117 248.766963,200.18771 258.065959,210.228497 C268.608585,221.953421 285.624595,225.324571 299.844815,218.505573 C314.065035,211.686574 322.082409,196.311208 319.529614,180.754934 C316.976818,165.19866 304.465484,153.188643 288.810939,151.26713 C277.308541,149.848557 265.838841,154.137821 258.093376,162.75428 Z" id="Shape" fill="#363636"></path>
            <path d="M182.48098,9.51903913 C195.173012,22.2110814 195.173006,42.7889383 182.480967,55.4809736 C169.788928,68.1730088 149.211072,68.1730088 136.519033,55.4809736 C123.826994,42.7889383 123.826988,22.2110814 136.51902,9.51903913 C142.613953,3.42410101 150.880459,0 159.5,0 C168.119541,0 176.386047,3.42410101 182.48098,9.51903913 Z M136.51902,317.519039 C123.826988,330.211081 123.826994,350.788938 136.519033,363.480974 C149.211072,376.173009 169.788928,376.173009 182.480967,363.480974 C195.173006,350.788938 195.173012,330.211081 182.48098,317.519039 C176.386047,311.424101 168.119541,308 159.5,308 C150.880459,308 142.613953,311.424101 136.51902,317.519039 Z M221.534329,230.857784 C213.183173,230.819241 205.141251,234.019655 199.093915,239.788313 C189.501464,248.798727 177.082999,254.193758 163.959964,255.051773 C163.602815,255.080061 163.242205,255.106524 162.859728,255.127695 C162.509868,255.145945 162.159461,255.157808 161.809055,255.170219 C161.486163,255.180804 161.15161,255.188469 160.812136,255.193032 C160.451161,255.199602 160.091279,255.217853 159.729757,255.217853 C158.683275,255.217853 157.640255,255.182447 156.599422,255.1266 C119.970775,253.454228 91.1328783,223.224322 91.1328783,186.499979 C91.1328783,149.775635 119.970775,119.545729 156.599422,117.873357 C157.640255,117.818606 158.683457,117.782104 159.729757,117.782104 C160.144851,117.782104 160.558123,117.801998 160.972489,117.810758 C161.192609,117.815138 161.415827,117.818788 161.628476,117.825723 C175.577525,118.182985 188.909894,123.65838 199.093915,133.212192 C205.140992,138.980501 213.182509,142.180713 221.533236,142.142173 C239.492441,142.113798 254.028288,127.50909 253.999959,109.521644 C253.971629,91.5341976 239.389852,76.9754926 221.430647,77.0038653 C213.131084,76.9919212 205.145017,80.1783017 199.127079,85.9028204 C188.449659,95.909166 174.352505,101.44158 159.730122,101.364116 L159.728846,101.364116 C145.099329,101.433169 130.997476,95.895201 120.313667,85.8852999 C113.80351,79.7040806 105.022759,76.5083186 96.0692877,77.061537 C86.8745686,77.6140834 78.3455052,82.0474321 72.6016754,89.259841 C66.8578455,96.4722499 64.4385063,105.786585 65.9448933,114.888119 C67.6301529,124.243972 65.1717229,133.87149 59.2086326,141.268155 L58.4688247,142.163526 C52.3695979,149.742217 43.1329503,154.095302 33.4148476,153.971067 C21.5912863,153.634436 10.5191441,159.759855 4.50820462,169.963032 C-1.50273487,180.166208 -1.50273487,192.835026 4.50820462,203.038203 C10.5191441,213.24138 21.5912863,219.366799 33.4148476,219.030167 C43.1331826,218.905165 52.3703384,223.257896 58.469918,230.836613 L59.2097259,231.731984 C65.1725805,239.128757 67.630744,248.756274 65.9452577,258.112021 C64.4388682,267.213536 66.8582116,276.527853 72.602047,283.740234 C78.3458824,290.952615 86.8749483,295.385924 96.0696521,295.93842 C105.023119,296.491843 113.803927,293.296126 120.314032,287.11484 C130.997642,277.104813 145.099388,271.566705 159.728846,271.635658 L159.729757,271.635658 C174.352119,271.558127 188.449276,277.090477 199.126714,287.096772 C208.794287,296.25288 223.057969,298.581471 235.128161,292.974122 C247.198354,287.366773 254.636363,274.956407 253.901653,261.650432 C252.848544,244.471108 238.718138,231.028149 221.534329,230.857784 Z" id="Shape" fill="#8C43FF"></path>
        </g>
    </g>
</svg>